<?xml version="1.0" encoding="utf-8"?>
<!-- Generator: Adobe Illustrator 14.0.0, SVG Export Plug-In . SVG Version: 6.00 Build 43363)  -->
<!DOCTYPE svg PUBLIC "-//W3C//DTD SVG 1.1//EN" "http://www.w3.org/Graphics/SVG/1.1/DTD/svg11.dtd">
<svg version="1.1" id="Layer_1" xmlns="http://www.w3.org/2000/svg" xmlns:xlink="http://www.w3.org/1999/xlink" x="0px" y="0px"
	 width="100px" height="100px" viewBox="0 0 100 100" enable-background="new 0 0 100 100" xml:space="preserve">
<g>
	<path d="M96.813,45.929c2.249,2.248,2.249,5.893,0,8.142L54.071,96.815c-2.249,2.248-5.892,2.248-8.143,0L3.187,54.071
		c-2.249-2.247-2.249-5.893,0-8.142L45.93,3.186c2.249-2.249,5.892-2.249,8.141,0L96.813,45.929z"/>
	<path fill="#FFFFFF" d="M94.985,47.15c1.574,1.574,1.574,4.126,0,5.7L52.852,94.984c-1.574,1.572-4.126,1.572-5.701,0L5.018,52.85
		c-1.574-1.574-1.574-4.126,0-5.7L47.151,5.018c1.575-1.574,4.127-1.575,5.701,0L94.985,47.15z"/>
	<path fill="#FFCC00" d="M90.163,48.435c0.862,0.865,0.862,2.266,0,3.129L51.565,90.161c-0.863,0.864-2.265,0.864-3.129,0
		L9.84,51.566c-0.864-0.865-0.864-2.266,0-3.131L48.436,9.839c0.864-0.864,2.265-0.864,3.129,0L90.163,48.435z"/>
	<path d="M56.052,37.695c-0.942-0.469-1.366-0.785-1.586-0.785c-0.218,0-1.157-0.618-1.441-0.655
		c-0.287-0.037-0.729-0.181-0.976-0.288c-0.247-0.108-0.682-0.469-2.301-0.577c-1.62-0.108-4.677-0.289-6.519-0.359
		c-1.833-0.072-4.421-0.357-5.646-0.577c-1.225-0.213-2.017-0.176-2.665-0.176s-2.807,0.176-4.5,0.932
		c-1.691,0.758-4.285,2.017-5.185,2.919c-0.897,0.897-1.512,1.364-1.798,2.335c-0.19,0.647-0.715,1.688-0.914,3.142
		c-0.093,0.635,0.204,0.296,0.199,0.323c-0.139,0.673-0.187,1.729-0.186,2.188c-0.001,2.789,1.449,5.283,2.136,6.729
		c-0.054,0.757-0.306,3.686-0.083,4.497c0.107,0.402,1.546,2.738,1.834,3.279c0.289,0.542,0.471,0.465,0.579,0.752
		c0.106,0.291,0.144,0.72,0.502,1.009c0.359,0.29,0.645,0.251,0.791,0.29c0.144,0.033,0.434,0.145,0.615,0.506
		c0.176,0.357,1.043,0.376,1.256,0.261c0.503,0.135,1.767-0.044,1.947-0.23c0.286,0.077,1.113-0.253,1.295-0.465
		c0.435-0.214,0.433-0.501,0.435-0.828c-0.001-0.326-0.075-1.043-0.435-1.369c-0.357-0.323-1.332-0.829-1.91-1.083
		c-0.573-0.251-1.365-0.791-1.621-1.327c-0.251-0.542-0.358-1.221-0.358-1.909c0.001-0.681,0.216-2.479,0.433-2.84
		c0.213-0.365,0.648-0.65,0.972-0.831c1.008,0.328,1.343,0.27,1.511,0.4c0.259,0.196,0.433,1.684,0.433,2.087
		c0,0.389,0.322,1.473,0.501,1.656c0.184,0.179,1.153,1.259,1.621,1.581c0.471,0.323,1.118,0.932,1.226,1.185
		c0.105,0.254,0.144,0.504,0.29,0.693c0.142,0.174,1.147,0.675,1.401,0.637c0.25-0.03,0.646,0.153,0.864,0.287
		c0.214,0.152,1.151,0.152,1.332,0.004c0.465,0.075,1.295-0.072,1.438-0.291c0.356-0.03,0.54-0.637,0.54-1.003
		c0-0.36-0.54-1.152-0.722-1.37c-0.176-0.214-1.078-0.646-1.76-0.894c-0.682-0.259-0.865-0.322-1.079-0.543
		c-0.218-0.221-0.614-0.687-0.65-0.79c-0.035-0.109-0.034-0.025-0.035-0.457c1.011,0.502,2.769,1.314,3.525,1.428
		c0.755,0.105,3.02,0.426,3.597,0.276c0.288,0.651,0.692,2.238,0.829,2.638c0.144,0.396,1.043,2.259,1.195,2.809
		c0.138,0.55,0.249,1.148,0.388,1.514c0.147,0.356,0.471,0.753,0.725,0.827c0.25,0.072,0.792-0.035,0.967,0.033
		c0.184,0.067,0.757,0.395,0.9,0.433c0.147,0.039,1.115,0.072,1.329-0.148c0.324,0.11,1.484-0.063,1.625-0.247
		c0.323-0.037,0.825-0.481,0.901-0.646c0.057-0.135-0.076-1.042-0.214-1.333c-0.146-0.287-0.481-0.867-1.523-1.156
		s-1.392-0.792-1.503-0.931c-0.109-0.148-0.184-0.505-0.184-1.364c0-0.87,0.119-0.927,0.119-1.391s-0.057-1.233,0.229-1.658
		c0.714-0.06,3.057,0.345,3.726,0.057c0.177,0.679,1.042,1.764,1.223,2.452c0.173,0.673,0.642,2.476,0.752,2.763
		c0.106,0.289,0.578,0.65,1.046,0.796s0.788,0.309,1.06,0.326c0.327,0.02,0.992-0.007,1.136-0.182
		c0.465,0.104,1.333,0.037,1.511-0.113c0.651-0.003,0.902-0.137,0.976-0.32c0.392-0.146,0.464-0.146,0.464-0.396
		c0.004-0.253-0.287-0.617-0.323-0.831c-0.037-0.212-0.181-0.752-0.505-0.967c-0.327-0.219-1.116-0.507-1.504-0.866
		c-0.404-0.365-1.333-0.829-1.333-2.05c0-1.229,0.149-2.493,0.149-2.78c-0.072-0.542,0.896,0.468,3.192,0.475
		c0.438,0,0.578,0.182,0.688,0.324c0.101,0.143,1.334,2.59,1.761,3.059c0.431,0.472,1.694,1.474,2.874,1.513
		c1.192,0.04,1.842-0.181,2.306-0.181c0.472,0,1.477-0.219,1.842-0.61c0.36-0.398,0.812-1.099,0.698-2.102
		c0.575-0.792,0.919-1.72,0.415-2.291c-0.505-0.578-0.726,0.032-1.05,0.251c-0.351-0.431-0.542-0.755-0.755-0.971
		c-0.215-0.212-0.792-0.937-0.792-2.049c0-1.116,1.005-3.817,1.3-4.393c0.284-0.578,0.571-1.399,1.078-1.62
		c0.342-0.144,1.197-0.454,1.635-0.454c0.135,0.254,0.204,0.31,0.451,0.31c0.257,0.001,0.361-0.215,0.391-0.467
		c0.722-0.035,2.414-0.42,2.798-0.744c0.391-0.323,0.564-0.587,0.564-1.092c0-0.504-0.839-1.835-1.229-2.412
		c-0.398-0.579-1.297-1.619-1.875-2.125c-0.575-0.502-0.602-0.579-0.792-0.825c-0.363-0.506-0.849-0.754-1.607-0.755
		c-0.752,0-0.869,0.321-1.267,0.645c-0.174,0.124-0.146,0.25-0.558,0.317c-0.215-0.087-0.234-0.172-0.735-0.136
		c-0.705,0.049-0.976,0.73-1.33,0.995c-0.304,0.229-0.752,0.337-0.909,0.338c-0.211-0.505-0.559-0.994-1.097-0.995
		c-0.54,0.001-0.984,0.235-1.644,0.235c-0.642,0-0.819-0.032-0.819-0.032c-0.414-0.29-0.665-0.657-0.879-0.656
		c-0.21,0-0.635,0.473-0.748,0.688c-1.053,0.071-2.205,0.249-2.597,0.363C60.073,39.097,58.797,37.949,56.052,37.695z"/>
</g>
</svg>
