<?xml version="1.0" encoding="utf-8"?>
<!-- Generator: Adobe Illustrator 17.0.1, SVG Export Plug-In . SVG Version: 6.00 Build 0)  -->
<!DOCTYPE svg PUBLIC "-//W3C//DTD SVG 1.1//EN" "http://www.w3.org/Graphics/SVG/1.1/DTD/svg11.dtd">
<svg version="1.1" id="Layer_1" xmlns="http://www.w3.org/2000/svg" xmlns:xlink="http://www.w3.org/1999/xlink" x="0px" y="0px"
	 width="112px" height="265.75px" viewBox="-36 -86.75 112 265.75" enable-background="new -36 -86.75 112 265.75"
	 xml:space="preserve">
<path fill="#2B2111" d="M52.778,82.187c0,0-24.352-16.29-42.947-4.115c-2.835-0.914-5.31-1.011-7.427-0.688
	c0.557-0.784,2.589-3.744,2.162-4.741c-0.963-2.249-3.785-1.647-4.113,0.493c-0.246,1.594-0.216,3.19,0.363,4.582
	c-0.584,0.156-1.136,0.342-1.654,0.544c0.45-0.796,1.377-2.976-1.011-4.303c-2.962-1.645-5.43,2.634-3.127,4.279
	c0.701,0.5,1.248,0.908,1.671,1.235c-1.963,1.154-3.127,2.273-3.481,2.056c-5.925-3.62-7.075,0.823-7.075,0.823
	s-1.316,14.48-14.973,13.823c-6.608-0.318-6.531,9.317-4.772,13.658c3.882,9.576,13.054,7.753,16.795,6.539
	c0.707,0.92,1.845,2.182,2.785,2.182c1.48,0,3.62-2.797,2.962-3.783c-0.24-0.361-0.479-0.764-0.689-1.133
	c4.837-1.437,7.096-4.874,8.422-8.082c2.48-5.998,0,9.215,5.758,12.998c0,0-9.79,22.498,3.292,28.796
	c4.443,2.141,0.165-5.099,3.455-13c0,0,2.797-5.758,3.127,0.987c0,0,0.83,15.246,10.64,20.385c-1.013,1.498-2.474,4.368-1.919,7.916
	c0.823,5.267-5.336,6.471-3.95,9.215c1.314,2.601-0.33,5.1,5.1,4.443c5.43-0.658,8.228-3.62,8.885-5.76
	c0.658-2.14,1.317-8.721,2.634-8.392c0.953,0.238,14.325,4.555,25.63-1.654c0.013,0.057,0.018,0.112,0.037,0.172
	c0.658,1.975-0.405,5.108-2.642,6.786c-2.158,1.62-2.255,2.176,0.667,0.456c4.002-2.357,4.095-6.572,4.309-8.905
	c3.392-2.412,6.488-5.931,8.854-11.006C77.296,134.511,79.271,97.325,52.778,82.187z M-26.91,107.206
	c-1.16,0.283-2.364-0.568-2.691-1.901c-0.328-1.335,0.345-2.648,1.504-2.932c1.158-0.283,2.364,0.566,2.693,1.901
	C-25.077,105.609-25.752,106.922-26.91,107.206z"/>
<ellipse transform="matrix(-0.377 -0.9262 0.9262 -0.377 -92.3265 107.4832)" fill="#FFFFFF" cx="-10.015" cy="84.792" rx="1.121" ry="0.706"/>
<path fill="none" stroke="#C6C4B9" stroke-width="0.4" stroke-linecap="round" stroke-miterlimit="10" d="M11.356,132.193
	c0,0,28.104-24.573,12.297-58.398c0,0,5.12-2.321,3.95-3.62c-1.284-1.426-3.951,3.262-3.951,3.262s-0.432-2.059-1.816-2.43
	c-2.077-0.556-0.051,2.526,1.819,2.787"/>
<path fill="none" stroke="#C6C4B9" stroke-width="0.4" stroke-linecap="round" stroke-miterlimit="10" d="M23.543,73.213
	c0,0-3.569-83.674-5.698-83.674"/>
<path fill="#06B09E" d="M19.505-8.669C42.318-28.464,44.429-55.18,33.906-72.094c-13.707-22.031-58.431-18.962-54.682,22.27
	c2.598,28.588,39.644,41.658,39.644,41.658c-0.318,1.17-0.551,3.271,1.587,4.645C23.209-1.75,20.707-7.16,19.505-8.669z"/>
</svg>
