<?xml version="1.0" encoding="utf-8"?>
<!-- Generator: Adobe Illustrator 17.0.2, SVG Export Plug-In . SVG Version: 6.00 Build 0)  -->
<!DOCTYPE svg PUBLIC "-//W3C//DTD SVG 1.1 Tiny//EN" "http://www.w3.org/Graphics/SVG/1.1/DTD/svg11-tiny.dtd">
<svg version="1.1" baseProfile="tiny" id="Layer_1" xmlns="http://www.w3.org/2000/svg" xmlns:xlink="http://www.w3.org/1999/xlink"
	 x="0px" y="0px" width="340px" height="73px" viewBox="0 0 340 73" xml:space="preserve">
<g>
	<path fill="#251C0F" d="M334.728,73c0.332-0.562,0.523-1.217,0.523-1.917c0-1.174-0.534-2.224-1.373-2.919v-7.116
		c0.446-0.015,0.836-0.176,0.979-0.356c0,0,1.301-1.252-0.044-3.004c0,0-0.32,0.163-0.638,0.5c-0.13-0.173-0.292-0.347-0.495-0.522
		c0,0-0.206,0.165-0.418,0.46c-0.156-0.146-0.343-0.288-0.568-0.423c0,0-1.118,1.211-0.351,2.527
		c0.315,0.54,0.806,0.763,1.276,0.809v6.931c-0.613-0.426-1.357-0.677-2.16-0.677c-0.6,0-1.195,0.247-1.716,0.571v-4.232
		c0.446-0.015,0.836-0.176,0.979-0.356c0,0,1.301-1.252-0.044-3.004c0,0-0.32,0.163-0.638,0.5c-0.13-0.173-0.292-0.347-0.495-0.522
		c0,0-0.206,0.165-0.418,0.46c-0.156-0.146-0.343-0.288-0.568-0.423c0,0-1.118,1.211-0.351,2.527
		c0.315,0.54,0.806,0.763,1.276,0.809v4.412c-0.781,0.548-1.345,1.219-1.411,1.351c-0.448,0.547-1.217,1.103-2.5,1.058
		c-2.855-0.098-1.575-3.052-4.234-5.613c0,0-0.288-0.223-0.771-0.482v-7.41c0-0.071-0.058-0.129-0.129-0.129
		c-0.071,0-0.129,0.058-0.129,0.129v7.279c-0.026-0.012-0.049-0.025-0.075-0.037c-0.026-0.013-0.054-0.025-0.08-0.038
		c-0.007-0.003-0.013-0.006-0.02-0.009c-0.034-0.016-0.068-0.031-0.102-0.045c-0.508-0.22-1.135-0.421-1.831-0.492
		c-0.552-1.175-1.15-2.069-1.767-2.744v-6.498c0-0.071-0.058-0.129-0.129-0.129s-0.129,0.058-0.129,0.129v6.227
		c-1.304-1.288-2.677-1.64-3.876-1.583v-2.06c0-0.071-0.058-0.129-0.129-0.129c-0.071,0-0.129,0.058-0.129,0.129v2.079
		c-1.812,0.175-3.167,1.235-3.167,1.235c-0.276,0.266-0.508,0.536-0.708,0.807v-6.705c0-0.071-0.058-0.129-0.129-0.129
		c-0.071,0-0.129,0.058-0.129,0.129v7.081c-1.397,2.209-0.846,4.346-3.267,4.43c-0.219,0.008-0.418-0.008-0.608-0.032v-8.895
		c0-0.071-0.058-0.129-0.129-0.129c-0.071,0-0.129,0.058-0.129,0.129v8.857c-0.78-0.163-1.298-0.578-1.633-0.989
		c-0.088-0.175-1.055-1.302-2.242-1.825v-8.627c0-0.071-0.058-0.129-0.129-0.129c-0.071,0-0.129,0.058-0.129,0.129v8.524
		c-0.288-0.101-0.586-0.164-0.885-0.164c-1.217,0-2.297,0.577-2.99,1.469v-7.245c0-0.071-0.058-0.129-0.129-0.129
		s-0.129,0.058-0.129,0.129v7.437c-0.461-0.5-1.117-0.817-1.85-0.817c-0.061,0-0.122,0.005-0.182,0.009
		c-2.429-5.373-6.268-2.366-6.268-2.366c-1.768,1.703-0.917,3.667-2.816,3.732c-0.853,0.03-1.365-0.34-1.662-0.703
		c-0.065-0.13-0.862-1.052-1.779-1.317V20.809h-4.306v-4.823h-3.273v-5.167h-3.79V6.34h-2.842h-0.258h-2.842v4.479h-3.789v5.167
		h-3.273v4.823h-4.107v-7.893c0,0-5.877,0.533-6.177-4.311c-0.176-2.924-1.944-7.829-7.45-7.661
		c-5.677-0.083-7.149,4.752-7.49,7.661c-0.512,4.42-6.172,4.311-6.172,4.311v7.146h-5.22l-5.218-8.701V9.675h-7.832v1.686
		l-5.223,8.701h-5.653v1.076h5.653v0.603h-5.653v33.991c-4.546-4.828-9.845-0.68-9.845-0.68c-3.497,3.368-1.814,7.255-5.57,7.384
		c-0.232,0.008-0.451,0-0.658-0.02c-0.744-1.461-2.186-2.505-3.889-2.688c-0.845-0.711-2.013-1.437-3.196-1.437
		c-2.754,0-4.987,2.233-4.987,4.988c0,0.186,0.012,0.369,0.032,0.55c-0.032,0-0.063,0.001-0.096,0
		c-3.741-0.129-2.064-3.999-5.547-7.354c0,0-0.55-0.43-1.447-0.852c-0.035-0.017-0.07-0.033-0.106-0.049
		c-0.009-0.004-0.017-0.008-0.026-0.012c-0.044-0.02-0.089-0.041-0.133-0.059c-0.665-0.287-1.487-0.551-2.399-0.644
		c-4.791-10.196-12.22-4.381-12.22-4.381c-3.483,3.355-1.806,7.225-5.547,7.354c-1.681,0.058-2.69-0.67-3.276-1.386
		c-0.151-0.301-2.273-2.742-4.436-2.742c-2.734,0-4.951,2.21-4.966,4.94c-0.421-0.096-0.858-0.149-1.308-0.149
		c-0.683,0-1.338,0.118-1.947,0.334V29.523h4.792c0.213,0,0.478-0.049,0.732-0.127c0.255-0.078,0.5-0.187,0.673-0.305l3.068-2.106
		c0.173-0.119,0.26-0.276,0.26-0.433c0-0.157-0.087-0.314-0.26-0.432l-3.068-2.106c-0.174-0.119-0.418-0.227-0.673-0.306
		c-0.254-0.078-0.519-0.127-0.732-0.127h-4.792v-7.857c0.883-0.358,1.507-1.223,1.507-2.235c0-1.332-1.08-2.411-2.411-2.411
		s-2.411,1.08-2.411,2.411c0,1.012,0.624,1.876,1.507,2.235v5.273h-4.473c-0.213,0-0.478,0.049-0.732,0.127
		c-0.255,0.078-0.5,0.187-0.673,0.305l-3.068,2.106c-0.173,0.119-0.26,0.276-0.26,0.433c0,0.157,0.087,0.314,0.26,0.432l3.068,2.106
		c0.174,0.119,0.418,0.227,0.673,0.306c0.254,0.078,0.519,0.127,0.732,0.127h4.473v32.921c-1.274,1.071-2.084,2.676-2.084,4.471
		c0,1.163,0.342,2.246,0.928,3.156h48.643h9.476h16.415h7.052h7.741h14.354h0.003h10.528v-1.423h-10.528v-0.258h10.528V65.57
		h-10.528v-0.258h10.528v-4.658c0-1.873,1.519-3.392,3.392-3.392c1.873,0,3.392,1.519,3.392,3.392v4.658h9.775v0.258h-9.775v0.237
		h9.775v0.258h-9.775v1.423h9.775h0.199h14.011h0.258h5.645c-0.123-0.07-0.238-0.155-0.342-0.256
		c-0.314-0.307-0.493-0.718-0.502-1.158c-0.02-0.92,0.713-1.685,1.633-1.705c0.012,0,0.024-0.001,0.037-0.001
		c0.301,0,0.592,0.08,0.845,0.23l0.464-0.677l-0.221-0.628c-0.223,0.021-0.28-0.034-0.312-0.051
		c-0.04-0.021-0.147-0.085-0.147-0.085s-0.044-0.008-0.028-0.052c0.016-0.044,0.109-0.011,0.219,0.004c0,0,0.238,0.043,0.483,0.051
		c0.346,0.011,0.518,0.033,0.584,0.049c0.066,0.016,0.102,0.059,0.041,0.069c-0.061,0.01-0.145,0.003-0.228-0.021
		c-0.084-0.024-0.059-0.065-0.434,0.009c-0.001,0-0.002,0-0.003,0l0.206,0.587l2.814-0.06l-0.152-0.461l0.75,0.047
		c0.003-0.001,0.005-0.001,0.007,0c0.245,0.024,0.425,0.244,0.4,0.49c-0.023,0.227-0.212,0.397-0.435,0.402
		c-0.018,0.001-0.036,0-0.055-0.002c-0.022-0.002-0.038-0.021-0.035-0.043c0.002-0.022,0.022-0.038,0.043-0.035
		c0.202,0.02,0.383-0.127,0.403-0.33c0.02-0.201-0.125-0.38-0.325-0.403v0l-0.515-0.031l0.311,0.989
		c0.001,0.004,0.009,0.024,0.021,0.056c0.176-0.068,0.366-0.107,0.564-0.111c0.452-0.01,0.88,0.16,1.203,0.475
		c0.314,0.307,0.492,0.718,0.502,1.158c0.01,0.446-0.155,0.868-0.463,1.191c-0.117,0.122-0.25,0.224-0.394,0.304h1.407h0.215h10.072
		c-0.926,0.817-1.513,2.008-1.513,3.34c0,0.789,0.207,1.529,0.567,2.172H334.728z M338.012,73v-9.369
		c0.446-0.015,0.836-0.176,0.979-0.356c0,0,1.301-1.252-0.044-3.004c0,0-0.32,0.163-0.638,0.5c-0.13-0.173-0.292-0.347-0.495-0.522
		c0,0-0.206,0.165-0.418,0.46c-0.156-0.146-0.343-0.288-0.568-0.423c0,0-1.118,1.211-0.351,2.527
		c0.315,0.54,0.806,0.763,1.276,0.809V73H338.012z M201.803,53.681h-2.312v-5.591h2.312V53.681z M201.803,47.488h-2.312v-3.04h2.312
		V47.488z M201.803,40.49h-2.312v-5.181h2.312V40.49z M201.803,34.706h-2.312v-3.45h2.312V34.706z M204.767,53.681h-2.361v-5.591
		h2.361V53.681z M204.767,47.488h-2.361v-3.04h2.361V47.488z M204.767,40.49h-2.361v-5.181h2.361V40.49z M204.767,34.706h-2.361
		v-3.45h2.361V34.706z M210.247,53.681h-2.276v-5.591h2.276V53.681z M210.247,47.488h-2.276v-3.04h2.276V47.488z M210.247,40.49
		h-2.276v-5.181h2.276V40.49z M210.247,34.706h-2.276v-3.45h2.276V34.706z M210.247,25.414h-2.276v-5.617h2.276V25.414z
		 M210.247,19.194h-2.276v-3.013h2.276V19.194z M213.247,53.681h-2.397v-5.591h2.397V53.681z M213.247,47.488h-2.397v-3.04h2.397
		V47.488z M213.247,40.49h-2.397v-5.181h2.397V40.49z M213.247,34.706h-2.397v-3.45h2.397V34.706z M213.247,25.414h-2.397v-5.617
		h2.397V25.414z M213.247,19.194h-2.397v-3.013h2.397V19.194z M218.979,53.681h-2.339v-5.591h2.339V53.681z M218.979,47.488h-2.339
		v-3.04h2.339V47.488z M218.979,40.49h-2.339v-5.181h2.339V40.49z M218.979,34.706h-2.339v-3.45h2.339V34.706z M221.916,53.681
		h-2.334v-5.591h2.334V53.681z M221.916,47.488h-2.334v-3.04h2.334V47.488z M221.916,40.49h-2.334v-5.181h2.334V40.49z
		 M221.916,34.706h-2.334v-3.45h2.334V34.706z M225.131,21.741h-5.055v-0.603h5.055V21.741z M230.827,52.721h-2.083v-5.147
		c0-0.025,0.003-0.05,0.004-0.075h2.08V52.721z M230.827,46.896h-1.985c0.262-0.904,1.035-1.589,1.985-1.728V46.896z
		 M230.827,38.776h-2.083v-5.147c0-0.026,0.003-0.05,0.004-0.075h2.08V38.776z M230.827,32.951h-1.985
		c0.262-0.904,1.035-1.589,1.985-1.728V32.951z M230.827,24.832h-2.083v-5.147c0-0.025,0.003-0.05,0.004-0.075h2.08V24.832z
		 M230.827,19.006h-1.985c0.262-0.904,1.035-1.589,1.985-1.728V19.006z M231.43,17.262c0.999,0.101,1.82,0.806,2.092,1.744h-2.092
		V17.262z M231.43,31.207c0.999,0.101,1.819,0.806,2.092,1.744h-2.092V31.207z M231.43,45.152c0.999,0.101,1.819,0.806,2.092,1.744
		h-2.092V45.152z M233.62,52.721h-2.19v-5.222h2.186c0.001,0.025,0.004,0.05,0.004,0.075V52.721z M233.62,38.776h-2.19v-5.222h2.186
		c0.001,0.025,0.004,0.05,0.004,0.075V38.776z M233.62,24.832h-2.19v-5.222h2.186c0.001,0.025,0.004,0.05,0.004,0.075V24.832z
		 M238.662,52.721h-2.083v-5.147c0-0.025,0.003-0.05,0.004-0.075h2.08V52.721z M238.662,46.896h-1.985
		c0.262-0.905,1.035-1.589,1.985-1.728V46.896z M238.662,38.776h-2.083v-5.147c0-0.026,0.003-0.05,0.004-0.075h2.08V38.776z
		 M238.662,32.951h-1.985c0.262-0.904,1.035-1.589,1.985-1.728V32.951z M238.662,24.832h-2.083v-5.147
		c0-0.025,0.003-0.05,0.004-0.075h2.08V24.832z M238.662,19.006h-1.985c0.262-0.905,1.035-1.59,1.985-1.728V19.006z M241.455,52.721
		h-2.19v-5.222h2.186c0.001,0.025,0.004,0.05,0.004,0.075V52.721z M239.266,46.896v-1.744c0.999,0.101,1.819,0.806,2.092,1.744
		H239.266z M241.455,38.776h-2.19v-5.222h2.186c0.001,0.025,0.004,0.05,0.004,0.075V38.776z M239.266,32.951v-1.744
		c0.999,0.101,1.819,0.806,2.092,1.744H239.266z M241.455,24.832h-2.19v-5.222h2.186c0.001,0.025,0.004,0.05,0.004,0.075V24.832z
		 M239.266,19.006v-1.744c0.999,0.101,1.82,0.806,2.092,1.744H239.266z M238.825,11.367c-2.126,0-3.845-1.723-3.845-3.845
		c0-2.123,1.72-3.846,3.845-3.846c2.12,0,3.846,1.723,3.846,3.846C242.671,9.644,240.946,11.367,238.825,11.367z M247.354,17.262
		c0.999,0.101,1.82,0.806,2.092,1.744h-2.092V17.262z M247.354,31.207c0.999,0.101,1.819,0.806,2.092,1.744h-2.092V31.207z
		 M247.354,45.152c0.999,0.101,1.819,0.806,2.092,1.744h-2.092V45.152z M246.751,52.721h-2.084v-5.147
		c0-0.025,0.003-0.05,0.004-0.075h2.08V52.721z M246.751,46.896h-1.986c0.262-0.905,1.035-1.589,1.986-1.728V46.896z
		 M246.751,38.776h-2.084v-5.147c0-0.026,0.003-0.05,0.004-0.075h2.08V38.776z M246.751,32.951h-1.986
		c0.262-0.904,1.035-1.589,1.986-1.728V32.951z M246.751,24.832h-2.084v-5.147c0-0.025,0.003-0.05,0.004-0.075h2.08V24.832z
		 M246.751,19.006h-1.986c0.262-0.905,1.035-1.59,1.986-1.728V19.006z M249.544,52.721h-2.19v-5.222h2.186
		c0.001,0.025,0.004,0.05,0.004,0.075V52.721z M249.544,38.776h-2.19v-5.222h2.186c0.001,0.025,0.004,0.05,0.004,0.075V38.776z
		 M249.544,24.832h-2.19v-5.222h2.186c0.001,0.025,0.004,0.05,0.004,0.075V24.832z M258.192,48.025h-2.799v-2.541h2.799V48.025z
		 M258.192,44.881h-2.799v-3.789h2.799V44.881z M258.192,40.489h-2.799v-2.67h2.799V40.489z M261.594,48.025h-2.799v-2.541h2.799
		V48.025z M261.594,44.881h-2.799v-3.789h2.799V44.881z M261.594,40.489h-2.799v-2.67h2.799V40.489z M261.96,34.848h-6.416v-8.01
		h6.416V34.848z M266.611,14.695c2.283,0,4.134,1.851,4.134,4.134s-1.851,4.134-4.134,4.134c-2.283,0-4.134-1.851-4.134-4.134
		S264.327,14.695,266.611,14.695z M265.771,48.025h-2.799v-2.541h2.799V48.025z M265.771,44.881h-2.799v-3.789h2.799V44.881z
		 M265.771,40.489h-2.799v-2.67h2.799V40.489z M269.173,48.025h-2.799v-2.541h2.799V48.025z M269.173,44.881h-2.799v-3.789h2.799
		V44.881z M269.173,40.489h-2.799v-2.67h2.799V40.489z M269.711,34.848h-0.619v-1.389h0.619V34.848z M269.711,33.138l-0.043-0.007
		c0.014-0.005,0.028-0.009,0.043-0.016V33.138z M269.711,32.743c-0.008,0.001-0.017,0.001-0.022,0.003
		c-0.111,0.032-0.165,0.096-0.165,0.202c0,0.057-0.007,0.102,0.029,0.136c0.009,0.009,0.02,0.022,0.033,0.034l-0.475-0.074
		l-0.068,0.289h0.051v0.008h-0.187v-0.228h-0.419V32.48l0.146,0.056l-0.001,0.459l0.17,0l0.006-3.11l-0.17,0l-0.001,0.43
		l-0.912,0.345l-0.003,1.526l0.448,0.172v0.754h-0.691v0.228h-2.207c-0.045,0-0.082,0.027-0.082,0.059
		c0,0.033,0.036,0.06,0.082,0.06h1.016v1.389h-3.725v-8.01h7.148V32.743z M270.314,33.459h0.068c0.045,0,0.082-0.027,0.082-0.06
		c0-0.012-0.009-0.022-0.018-0.032c0.046,0.007,0.092,0.013,0.138,0.022c0.335,0.068,0.709,0.224,1.031,0.249
		c0.134,0.01,0.265-0.003,0.391-0.011c0.105-0.007,0.182-0.005,0.266-0.017c0,0,0.61-0.391,0.621-0.402
		c0.802-0.751,0.35,0.799,0.35,0.799c-0.001,0.024-1.147,0.107-1.163,0.129c-0.085-0.001-1.582,0.297-1.765,0.489V33.459z
		 M273.393,48.025h-2.799v-2.541h2.799V48.025z M273.393,44.881h-2.799v-3.789h2.799V44.881z M273.393,40.489h-2.799v-2.67h2.799
		V40.489z M273.731,31.43c-0.104-0.185-0.275-0.231-0.281-0.577c0.088-0.125,0.184-0.356,0.184-0.356s0.099-0.159,0.089-0.229
		c-0.01-0.07-0.03-0.238-0.03-0.238s-0.002-0.005-0.003-0.009c-0.001-0.017-0.005-0.034-0.008-0.051
		c-0.002-0.025-0.001-0.055,0.012-0.089c0.03-0.08,0.035-0.134,0.015-0.164s-0.02-0.124-0.149-0.189
		c-0.129-0.065-0.184-0.199-0.457-0.199c-0.273,0-0.547-0.05-0.666,0.129c-0.119,0.179-0.245,0.188-0.225,0.318
		c0,0,0.002,0.003-0.006,0.019c-0.006,0.011,0.003,0.048,0.022,0.079c-0.02,0.101-0.036,0.247-0.041,0.299
		c-0.003,0.032,0.019,0.271-0.124,0.366c-0.088,0.058,0.084,0.054,0.113,0.102c-0.004,0.111,0.064,0.153,0.085,0.238
		c0.012,0.047-0.003,0.095,0.028,0.13c0.024,0.027,0.109,0.05,0.164,0.062c0.074,0.016,0.354-0.058,0.381-0.015
		c0.388,0.613,0.084,1.154-0.263,1.583c-0.049,0.047-0.442,0.408-0.498,0.448c-0.426,0.06-0.979-0.033-1.432-0.084
		c-0.02-0.015-0.041-0.028-0.074-0.029c-0.07-0.064-0.159-0.091-0.252-0.131v-6.007h6.416v8.01h-1.864
		c-0.006-0.265-0.059-0.644,0.048-1.158c0.183-0.884,0.594-1.824,0.552-1.903c-0.076-0.145-0.263-0.136-0.45,0.153
		c-0.187,0.289-0.427,0.697-0.603,1.419c-0.008,0.033-0.015,0.066-0.022,0.099C274.34,32.951,274.181,32.232,273.731,31.43z
		 M276.795,48.025h-2.799v-2.541h2.799V48.025z M276.795,44.881h-2.799v-3.789h2.799V44.881z M276.795,40.489h-2.799v-2.67h2.799
		V40.489z"/>
	<g>
		<path fill="#251C0F" d="M323.358,46.88c-0.51,0-1.011,0.576-1.046,0.647c-0.139,0.169-0.376,0.341-0.773,0.327
			c-0.882-0.03-0.487-0.943-1.309-1.734c0,0-0.129-0.101-0.341-0.201c-0.008-0.004-0.017-0.008-0.025-0.012
			c-0.002-0.001-0.004-0.002-0.006-0.003c-0.011-0.005-0.021-0.01-0.032-0.014c-0.157-0.067-0.351-0.13-0.566-0.152
			c-0.013-0.026-0.026-0.05-0.038-0.076V31.899c0.041-0.108,0-0.224,0-0.346c0-0.535-0.434-0.969-0.969-0.969
			c-0.346,0-0.647,0.182-0.819,0.455c-0.323,0.171-1.296,0.448-1.83-2.005c-0.646-2.971-0.388-4.134-0.388-4.134h-3.94
			c0,0,0.258,1.163-0.388,4.134c-0.533,2.454-1.507,2.176-1.83,2.005c-0.171-0.273-0.473-0.455-0.819-0.455
			c-0.535,0-0.969,0.434-0.969,0.969c0,0.08-0.016,0.158-0.017,0.233c-0.219,0.013-1.803,0.06-1.89-1.339
			c-0.055-0.907-0.603-2.429-2.311-2.377c-1.761-0.025-2.218,1.475-2.324,2.377c-0.159,1.371-1.915,1.338-1.915,1.338v15.253
			c-0.301,0.176-0.533,0.443-0.556,0.49c-0.138,0.169-0.376,0.341-0.773,0.327c-0.882-0.03-0.487-0.943-1.309-1.734
			c0,0-0.129-0.101-0.341-0.201c-0.008-0.004-0.017-0.008-0.025-0.012c-0.002-0.001-0.004-0.002-0.006-0.003
			c-0.011-0.005-0.021-0.01-0.032-0.014c-0.157-0.067-0.351-0.13-0.566-0.152c-1.13-2.404-2.881-1.033-2.881-1.033
			c-0.822,0.791-0.426,1.704-1.308,1.734c-0.397,0.014-0.634-0.158-0.772-0.327c-0.036-0.071-0.536-0.647-1.046-0.647
			c-0.645,0-1.167,0.521-1.171,1.165c-0.099-0.023-0.202-0.035-0.309-0.035c-0.76,0-1.377,0.617-1.377,1.377
			c0,0.274,0.08,0.53,0.219,0.744h12.253h0.031h3.236v-0.441h-3.236v-0.08h3.236v-0.073h-3.236v-0.08h3.236v-1.445
			c0-0.581,0.472-1.052,1.053-1.052c0.581,0,1.052,0.471,1.052,1.052v1.445h3.085v0.675h1.098h2.244h0.663h1.486h0.969h1.486h2.907
			h1.098h5.097c0.131-0.189,0.208-0.418,0.208-0.666C324.529,47.405,324.005,46.88,323.358,46.88z M300.568,44.136h-0.646v-1.597
			c0-0.008,0.002-0.015,0.002-0.023h0.644V44.136z M300.568,42.328h-0.613c0.082-0.28,0.319-0.491,0.613-0.534V42.328z
			 M300.568,39.809h-0.646v-1.597c0-0.008,0.002-0.015,0.002-0.023h0.644V39.809z M300.568,38.001h-0.613
			c0.082-0.28,0.319-0.49,0.613-0.534V38.001z M300.568,35.482h-0.646v-1.597c0-0.008,0.002-0.015,0.002-0.023h0.644V35.482z
			 M300.568,33.674h-0.613c0.082-0.28,0.319-0.49,0.613-0.534V33.674z M300.755,33.137c0.309,0.032,0.561,0.247,0.646,0.537h-0.646
			V33.137z M300.755,37.464c0.309,0.032,0.561,0.247,0.646,0.537h-0.646V37.464z M300.755,41.791
			c0.309,0.032,0.561,0.247,0.646,0.537h-0.646V41.791z M301.435,44.136h-0.679v-1.62h0.677c0,0.008,0.002,0.015,0.002,0.023V44.136
			z M301.435,39.809h-0.679v-1.62h0.677c0,0.008,0.002,0.015,0.002,0.023V39.809z M301.435,35.482h-0.679v-1.62h0.677
			c0,0.008,0.002,0.015,0.002,0.023V35.482z M302.999,44.136h-0.646v-1.597c0-0.008,0.002-0.015,0.002-0.023h0.644V44.136z
			 M302.999,42.328h-0.613c0.082-0.28,0.319-0.491,0.613-0.534V42.328z M302.999,39.809h-0.646v-1.597
			c0-0.008,0.002-0.015,0.002-0.023h0.644V39.809z M302.999,38.001h-0.613c0.082-0.28,0.319-0.49,0.613-0.534V38.001z
			 M302.999,35.482h-0.646v-1.597c0-0.008,0.002-0.015,0.002-0.023h0.644V35.482z M302.999,33.674h-0.613
			c0.081-0.28,0.319-0.491,0.613-0.534V33.674z M303.866,44.136h-0.679v-1.62h0.677c0,0.008,0.002,0.015,0.002,0.023V44.136z
			 M303.187,42.328v-0.537c0.309,0.032,0.561,0.247,0.646,0.537H303.187z M303.866,39.809h-0.679v-1.62h0.677
			c0,0.008,0.002,0.015,0.002,0.023V39.809z M303.187,38.001v-0.537c0.309,0.032,0.561,0.247,0.646,0.537H303.187z M303.866,35.482
			h-0.679v-1.62h0.677c0,0.008,0.002,0.015,0.002,0.023V35.482z M303.187,33.674v-0.537c0.309,0.032,0.561,0.247,0.646,0.537
			H303.187z M303.008,31.465c-0.763,0-1.383-0.62-1.383-1.383c0-0.763,0.62-1.383,1.383-1.383c0.763,0,1.383,0.62,1.383,1.383
			C304.392,30.845,303.771,31.465,303.008,31.465z M305.696,33.137c0.309,0.032,0.561,0.247,0.646,0.537h-0.646V33.137z
			 M305.696,37.464c0.309,0.032,0.561,0.247,0.646,0.537h-0.646V37.464z M305.696,41.791c0.309,0.032,0.561,0.247,0.646,0.537
			h-0.646V41.791z M305.509,44.136h-0.646v-1.597c0-0.008,0.002-0.015,0.002-0.023h0.644V44.136z M305.509,42.328h-0.613
			c0.082-0.28,0.319-0.491,0.613-0.534V42.328z M305.509,39.809h-0.646v-1.597c0-0.008,0.002-0.015,0.002-0.023h0.644V39.809z
			 M305.509,38.001h-0.613c0.082-0.28,0.319-0.49,0.613-0.534V38.001z M305.509,35.482h-0.646v-1.597
			c0-0.008,0.002-0.015,0.002-0.023h0.644V35.482z M305.509,33.674h-0.613c0.081-0.28,0.319-0.49,0.613-0.534V33.674z
			 M306.376,44.136h-0.68v-1.62h0.677c0,0.008,0.002,0.015,0.002,0.023V44.136z M306.376,39.809h-0.68v-1.62h0.677
			c0,0.008,0.002,0.015,0.002,0.023V39.809z M306.376,35.482h-0.68v-1.62h0.677c0,0.008,0.002,0.015,0.002,0.023V35.482z
			 M309.998,44.472h-0.8v-0.726h0.8V44.472z M309.998,43.574h-0.8v-1.083h0.8V43.574z M309.998,42.319h-0.8v-0.763h0.8V42.319z
			 M309.998,39.923h-0.8v-0.726h0.8V39.923z M309.998,39.025h-0.8v-1.083h0.8V39.025z M309.998,37.77h-0.8v-0.763h0.8V37.77z
			 M309.998,35.374h-0.8v-0.726h0.8V35.374z M309.998,34.476h-0.8v-1.083h0.8V34.476z M309.998,33.221h-0.8v-0.763h0.8V33.221z
			 M310.969,44.472h-0.8v-0.726h0.8V44.472z M310.969,43.574h-0.8v-1.083h0.8V43.574z M310.969,42.319h-0.8v-0.763h0.8V42.319z
			 M310.969,39.923h-0.8v-0.726h0.8V39.923z M310.969,39.025h-0.8v-1.083h0.8V39.025z M310.969,37.77h-0.8v-0.763h0.8V37.77z
			 M310.969,35.374h-0.8v-0.726h0.8V35.374z M310.969,34.476h-0.8v-1.083h0.8V34.476z M310.969,33.221h-0.8v-0.763h0.8V33.221z
			 M313.335,27.678h0.8v0.763h-0.8V27.678z M313.335,28.613h0.8v1.083h-0.8V28.613z M312.363,27.678h0.8v0.763h-0.8V27.678z
			 M312.363,28.613h0.8v1.083h-0.8V28.613z M312.363,29.868h0.8v0.726h-0.8V29.868z M313.227,44.472h-0.8v-0.726h0.8V44.472z
			 M313.227,43.574h-0.8v-1.083h0.8V43.574z M313.227,42.319h-0.8v-0.763h0.8V42.319z M313.227,39.923h-0.8v-0.726h0.8V39.923z
			 M313.227,39.025h-0.8v-1.083h0.8V39.025z M313.227,37.77h-0.8v-0.763h0.8V37.77z M313.227,35.374h-0.8v-0.726h0.8V35.374z
			 M313.227,34.476h-0.8v-1.083h0.8V34.476z M313.227,33.221h-0.8v-0.763h0.8V33.221z M313.335,29.868h0.8v0.726h-0.8V29.868z
			 M314.199,44.472h-0.8v-0.726h0.8V44.472z M314.199,43.574h-0.8v-1.083h0.8V43.574z M314.199,42.319h-0.8v-0.763h0.8V42.319z
			 M314.199,39.923h-0.8v-0.726h0.8V39.923z M314.199,39.025h-0.8v-1.083h0.8V39.025z M314.199,37.77h-0.8v-0.763h0.8V37.77z
			 M314.199,35.374h-0.8v-0.726h0.8V35.374z M314.199,34.476h-0.8v-1.083h0.8V34.476z M314.199,33.221h-0.8v-0.763h0.8V33.221z
			 M316.457,44.472h-0.8v-0.726h0.8V44.472z M316.457,43.574h-0.8v-1.083h0.8V43.574z M316.457,42.319h-0.8v-0.763h0.8V42.319z
			 M316.457,39.923h-0.8v-0.726h0.8V39.923z M316.457,39.025h-0.8v-1.083h0.8V39.025z M316.457,37.77h-0.8v-0.763h0.8V37.77z
			 M316.457,35.374h-0.8v-0.726h0.8V35.374z M316.457,34.476h-0.8v-1.083h0.8V34.476z M316.457,33.221h-0.8v-0.763h0.8V33.221z
			 M317.428,44.472h-0.8v-0.726h0.8V44.472z M317.428,43.574h-0.8v-1.083h0.8V43.574z M317.428,42.319h-0.8v-0.763h0.8V42.319z
			 M317.428,39.923h-0.8v-0.726h0.8V39.923z M317.428,39.025h-0.8v-1.083h0.8V39.025z M317.428,37.77h-0.8v-0.763h0.8V37.77z
			 M317.428,35.374h-0.8v-0.726h0.8V35.374z M317.428,34.476h-0.8v-1.083h0.8V34.476z M317.428,33.221h-0.8v-0.763h0.8V33.221z"/>
		<rect x="304.189" y="48.276" fill="#251C0F" width="3.095" height="0.441"/>
		<rect x="304.189" y="48.122" fill="#251C0F" width="3.095" height="0.073"/>
	</g>
	<g>
		<path fill="#251C0F" d="M303.438,30.082c0-0.229-0.189-0.416-0.422-0.416c-0.233,0-0.422,0.187-0.422,0.416
			c0,0.229,0.189,0.416,0.422,0.416C303.248,30.498,303.438,30.312,303.438,30.082z M302.814,30.28v-0.381
			c0-0.013,0.01-0.022,0.023-0.022h0.402c0.013,0,0.023,0.01,0.023,0.022v0.381c0,0.013-0.01,0.023-0.023,0.023h-0.402
			C302.825,30.303,302.814,30.293,302.814,30.28z"/>
		<path fill="#251C0F" d="M302.861,30.258c0.038,0,0.318,0,0.356,0c0-0.037,0-0.299,0-0.337c-0.038,0-0.318,0-0.356,0
			C302.861,29.959,302.861,30.221,302.861,30.258z"/>
		<path fill="#251C0F" d="M302.996,30.551c-0.122-0.005-0.232-0.055-0.314-0.133c-0.039,0.041-0.217,0.228-0.36,0.378
			c0.172,0.162,0.401,0.264,0.655,0.274C302.984,30.87,302.993,30.618,302.996,30.551z M302.806,30.791
			c-0.027,0.026-0.071,0.026-0.097,0c-0.027-0.026-0.027-0.069,0-0.095c0.027-0.026,0.071-0.026,0.098,0
			C302.833,30.722,302.833,30.765,302.806,30.791z"/>
		<path fill="#251C0F" d="M304.018,30.116c-0.202-0.007-0.453-0.016-0.526-0.019c-0.004,0.12-0.053,0.229-0.132,0.31
			c0.053,0.048,0.239,0.217,0.387,0.351C303.908,30.589,304.009,30.364,304.018,30.116z M303.635,30.421
			c-0.027-0.026-0.027-0.069,0-0.095c0.026-0.026,0.07-0.026,0.097,0c0.027,0.026,0.027,0.069,0,0.095
			C303.706,30.447,303.662,30.447,303.635,30.421z"/>
		<path fill="#251C0F" d="M303.699,30.804c-0.139-0.144-0.311-0.326-0.36-0.377c-0.083,0.076-0.194,0.123-0.315,0.125
			c0.003,0.067,0.013,0.318,0.019,0.518C303.296,31.063,303.526,30.963,303.699,30.804z M303.299,30.679
			c0.038,0,0.069,0.03,0.069,0.067c0,0.037-0.031,0.067-0.069,0.067c-0.038,0-0.069-0.03-0.069-0.067
			C303.23,30.709,303.261,30.679,303.299,30.679z"/>
		<path fill="#251C0F" d="M302.013,30.052c0.213,0.007,0.478,0.017,0.525,0.019c0.003-0.117,0.049-0.223,0.124-0.304
			c-0.041-0.037-0.233-0.21-0.387-0.351C302.119,29.584,302.021,29.807,302.013,30.052z M302.329,29.792
			c0.027-0.026,0.071-0.026,0.098,0c0.027,0.026,0.027,0.069,0,0.095c-0.027,0.026-0.071,0.026-0.098,0
			C302.303,29.861,302.303,29.818,302.329,29.792z"/>
		<path fill="#251C0F" d="M302.276,30.749c0.154-0.141,0.346-0.314,0.387-0.351c-0.074-0.08-0.121-0.185-0.124-0.301
			c-0.047,0.001-0.311,0.011-0.525,0.018C302.022,30.36,302.12,30.581,302.276,30.749z M302.376,30.301
			c0.038,0,0.069,0.03,0.069,0.067c0,0.037-0.031,0.067-0.069,0.067s-0.069-0.03-0.069-0.067
			C302.307,30.331,302.338,30.301,302.376,30.301z"/>
		<path fill="#251C0F" d="M302.139,29.177c0.013,0.013,0.067,0.071,0.137,0.143c0.183-0.173,0.428-0.281,0.699-0.292
			c-0.004-0.095-0.007-0.168-0.007-0.186c-0.003-0.062,0.082-0.08,0.083,0c0,0.022-0.002,0.094-0.005,0.185
			c0.27,0.008,0.516,0.114,0.701,0.284c0.064-0.067,0.115-0.119,0.131-0.135c0.02-0.019,0.037-0.02,0.051-0.016
			c-0.236-0.235-0.561-0.381-0.92-0.381c-0.36,0-0.687,0.147-0.922,0.384C302.102,29.158,302.122,29.159,302.139,29.177z"/>
		<path fill="#251C0F" d="M302.996,29.613c-0.003-0.067-0.012-0.318-0.019-0.518c-0.254,0.01-0.483,0.112-0.655,0.274
			c0.143,0.15,0.321,0.337,0.36,0.378C302.764,29.668,302.874,29.619,302.996,29.613z M302.763,29.4c0.038,0,0.069,0.03,0.069,0.067
			c0,0.038-0.031,0.067-0.069,0.068c-0.038,0-0.069-0.03-0.069-0.068C302.694,29.431,302.725,29.4,302.763,29.4z"/>
		<path fill="#251C0F" d="M303.699,29.36c-0.173-0.159-0.403-0.258-0.657-0.265c-0.007,0.2-0.016,0.45-0.019,0.518
			c0.122,0.002,0.232,0.049,0.315,0.125C303.389,29.686,303.561,29.505,303.699,29.36z M303.256,29.517
			c-0.027-0.026-0.027-0.069,0-0.095c0.027-0.026,0.071-0.026,0.097,0c0.027,0.026,0.027,0.069,0,0.095
			C303.327,29.544,303.283,29.543,303.256,29.517z"/>
		<path fill="#251C0F" d="M303.937,29.234c-0.013,0.012-0.069,0.062-0.14,0.127c0.173,0.181,0.281,0.422,0.29,0.688
			c0.098-0.003,0.175-0.006,0.193-0.007c0.012,0,0.02,0.004,0.029,0.009c-0.008-0.334-0.142-0.635-0.355-0.861
			C303.955,29.204,303.952,29.22,303.937,29.234z"/>
		<path fill="#251C0F" d="M304.087,30.118c-0.009,0.265-0.117,0.505-0.29,0.686c0.071,0.064,0.126,0.115,0.14,0.126
			c0.015,0.014,0.018,0.03,0.016,0.045c0.214-0.226,0.347-0.528,0.355-0.861c-0.008,0.004-0.015,0.009-0.029,0.009
			C304.256,30.123,304.181,30.121,304.087,30.118z"/>
		<path fill="#251C0F" d="M301.945,30.049c0.008-0.262,0.114-0.499,0.282-0.679c-0.072-0.066-0.129-0.119-0.146-0.136
			c-0.014-0.014-0.02-0.027-0.021-0.039c-0.211,0.226-0.343,0.525-0.351,0.855c0.008-0.005,0.017-0.009,0.029-0.009
			C301.756,30.043,301.839,30.046,301.945,30.049z"/>
		<path fill="#251C0F" d="M303.878,30.988c-0.017-0.016-0.067-0.068-0.131-0.135c-0.185,0.17-0.43,0.276-0.701,0.284
			c0.003,0.091,0.005,0.163,0.005,0.185c-0.001,0.08-0.086,0.062-0.083,0c0.001-0.018,0.004-0.091,0.007-0.186
			c-0.271-0.01-0.515-0.119-0.699-0.292c-0.069,0.073-0.124,0.13-0.137,0.143c-0.017,0.018-0.036,0.019-0.053,0.014
			c0.236,0.237,0.562,0.384,0.922,0.384c0.359,0,0.684-0.146,0.919-0.381C303.914,31.008,303.898,31.007,303.878,30.988z"/>
		<path fill="#251C0F" d="M301.945,30.118c-0.102,0.003-0.183,0.005-0.207,0.005c-0.014,0-0.02-0.005-0.029-0.009
			c0.008,0.331,0.14,0.63,0.351,0.855c0.001-0.012,0.007-0.025,0.021-0.039c0.017-0.016,0.074-0.07,0.146-0.135
			C302.059,30.615,301.953,30.379,301.945,30.118z"/>
		<path fill="#251C0F" d="M303.746,29.407c-0.148,0.134-0.333,0.302-0.387,0.351c0.08,0.082,0.129,0.192,0.133,0.313
			c0.073-0.003,0.324-0.012,0.526-0.019C304.01,29.802,303.908,29.577,303.746,29.407z M303.686,29.912
			c-0.038,0-0.069-0.03-0.069-0.067c0-0.037,0.031-0.067,0.069-0.067c0.038,0,0.069,0.03,0.069,0.067
			C303.755,29.882,303.724,29.912,303.686,29.912z"/>
	</g>
	<g>
		<path fill="#20170A" d="M274.608,66.198c0.007-0.063,0.01-0.126,0.009-0.191c-0.001-0.039-0.004-0.077-0.008-0.115l-1.162-0.002
			l-0.082,0.119c0.007,0.016,0.012,0.034,0.015,0.052L274.608,66.198z"/>
		<path fill="#20170A" d="M274.243,64.727c0.046,0.037,0.091,0.075,0.133,0.117c0.284,0.278,0.456,0.639,0.494,1.031l0.337,0
			l-0.594-1.689L274.243,64.727z"/>
		<path fill="#20170A" d="M274.761,64.08l0.632,1.796h0.049v0.009c0.097-0.002,0.188,0.027,0.264,0.076l1.928-1.748l-0.064-0.194
			L274.761,64.08z"/>
		<path fill="#20170A" d="M275.003,66.242c0.03-0.129,0.113-0.238,0.227-0.301l-0.017-0.049l-0.341,0
			c0.003,0.036,0.006,0.073,0.007,0.109c0.001,0.076-0.002,0.151-0.011,0.225L275.003,66.242z"/>
		<path fill="#20170A" d="M274.766,66.642l0.455,0.101c-0.134-0.078-0.226-0.222-0.23-0.388c0-0.003,0-0.006,0-0.008l-0.139-0.015
			C274.835,66.437,274.805,66.542,274.766,66.642z"/>
		<path fill="#20170A" d="M274.095,64.944l-0.636,0.929l1.149,0.002c-0.037-0.32-0.181-0.615-0.414-0.843
			C274.162,65.001,274.129,64.972,274.095,64.944z"/>
		<path fill="#20170A" d="M273.213,66.297l1.294,0.287c0.038-0.091,0.067-0.185,0.085-0.282l-1.224-0.136
			C273.343,66.232,273.285,66.283,273.213,66.297z"/>
		<path fill="#20170A" d="M277.874,64.777c-0.464,0.238-0.777,0.727-0.765,1.283c0.008,0.37,0.159,0.717,0.423,0.976
			c0.272,0.266,0.633,0.409,1.015,0.401c0.376-0.008,0.726-0.162,0.986-0.433c0.26-0.271,0.399-0.628,0.391-1.004
			c-0.008-0.37-0.158-0.717-0.423-0.976c-0.265-0.259-0.614-0.401-0.983-0.401c-0.01,0-0.021,0-0.031,0
			c-0.165,0.004-0.323,0.036-0.469,0.092c0.164,0.388,0.446,1.043,0.54,1.263c0.004,0,0.007-0.001,0.011-0.001
			c0.058-0.002,0.106,0.045,0.107,0.103c0.002,0.058-0.045,0.106-0.103,0.108c-0.058,0.001-0.106-0.045-0.108-0.103
			c0-0.031,0.013-0.06,0.034-0.08L277.874,64.777z"/>
		<path fill="#20170A" d="M273.179,64.631c-0.776,0.017-1.393,0.662-1.377,1.437c0.008,0.371,0.158,0.717,0.423,0.976
			c0.272,0.266,0.633,0.409,1.014,0.401c0.376-0.008,0.726-0.162,0.986-0.434c0.117-0.122,0.209-0.261,0.274-0.411l-1.357-0.301
			c-0.012-0.002-0.024-0.004-0.035-0.008l-0.026-0.006l0.001-0.004c-0.07-0.033-0.119-0.103-0.121-0.186
			c-0.003-0.116,0.09-0.212,0.206-0.215v-0.009h0.017l0.724-1.057c-0.21-0.121-0.449-0.185-0.697-0.185
			C273.2,64.631,273.19,64.631,273.179,64.631z"/>
		<path fill="#20170A" d="M277.711,64.449l-1.853,1.68c0.033,0.062,0.052,0.131,0.054,0.205c0.004,0.186-0.103,0.348-0.26,0.424
			l0.122,0.364l0.06-0.002c0.026,0,0.048,0.02,0.048,0.046l0.001,0.046c0.001,0.026-0.02,0.048-0.046,0.048l-0.203,0.004
			c-0.026,0.001-0.048-0.02-0.048-0.046l-0.001-0.046c-0.001-0.026,0.02-0.048,0.046-0.048l0.016,0l-0.11-0.329
			c-0.024,0.005-0.049,0.008-0.074,0.008l-0.002,0.008l-0.044-0.01c-0.043-0.004-0.084-0.013-0.122-0.027l-0.533-0.118
			c-0.079,0.196-0.195,0.377-0.345,0.534c-0.113,0.118-0.24,0.216-0.378,0.295h3.669c-0.129-0.072-0.25-0.16-0.358-0.265
			c-0.314-0.307-0.492-0.718-0.502-1.158c-0.014-0.659,0.358-1.239,0.908-1.521l-0.036-0.071L277.711,64.449z"/>
		<rect x="206.911" y="7.808" fill="#20170A" width="7.832" height="1.264"/>
		<polygon fill="#20170A" points="214.743,5.269 210.827,5.269 206.911,5.269 206.911,7.205 214.743,7.205 		"/>
	</g>
	<rect x="243.852" y="24.596" fill="#43AAA4" width="6.407" height="1.508"/>
	<path fill="#251C0F" d="M242.707,60.258h-1.943c-0.079-0.847-0.793-1.512-1.658-1.512c-0.867,0-1.582,0.665-1.662,1.512h-1.771
		v0.258h1.768c0.05,0.829,0.709,1.495,1.536,1.559v5.544h0.258v-5.544c0.825-0.064,1.482-0.73,1.532-1.559h1.94V60.258z"/>
	<rect x="243.852" y="52.486" fill="#43AAA4" width="6.407" height="1.508"/>
	<g>
		<path fill="#251C0F" d="M65.392,53.29c-0.006,0.004-0.606,0.332-1.381,0.136l-0.003-0.001c0,0-0.077,0.943-0.106,1.295h2.067
			c-0.019-0.268-0.06-0.858-0.06-0.858l-0.516-0.574L65.392,53.29z"/>
		<path fill="#251C0F" d="M99.443,54.721c0.632-0.911,1.005-2.016,1.005-3.209c0-3.118-2.528-5.647-5.647-5.647
			c-2.46,0-4.871,2.776-5.043,3.117c-0.666,0.814-1.813,1.642-3.724,1.576c-4.253-0.146-2.347-4.547-6.306-8.36
			c0,0-0.626-0.489-1.646-0.968c-0.04-0.019-0.08-0.037-0.12-0.056c-0.01-0.005-0.02-0.009-0.03-0.013
			c-0.05-0.023-0.101-0.046-0.152-0.067c-0.756-0.327-1.69-0.626-2.727-0.732C69.608,28.77,61.163,35.38,61.163,35.38
			c-3.96,3.814-2.053,8.23-6.306,8.36c-3.706,0.114-5.164-2.194-5.591-3.419c0.2-0.073,0.397-0.143,0.586-0.205
			c8.701-2.847,13.267-8.443,14.383-13.454c2.228,0.443,4.298,1.818,6.308,3.425c2.017,1.614,5.315,1.585,6.538-0.693
			c0.907-1.691,0.027-3.917-1.217-4.709c-0.853-0.543-2.647-0.64-2.647-0.64s0.56-2.179-1.783-3.665
			c-2.77-1.757-4.953,0.396-4.953,0.396s-0.557-2.123-2.687-2.653c0.044-0.014,0.089-0.033,0.132-0.045
			c-0.127-0.946-0.259-1.842-0.389-2.676c-0.13-0.128,2.564,0.967,3.98,2.002c1.689,1.236,4.375,1.117,5.305-0.746
			c0.691-1.383-0.091-3.143-1.126-3.743c-0.711-0.411-2.174-0.437-2.174-0.437s0.394-1.764-1.558-2.888
			C65.656,8.26,63.94,10.05,63.94,10.05s-0.247-0.798-0.971-1.415c0.006-0.023,0.014-0.046,0.014-0.071
			c-0.001-0.149-0.123-0.269-0.272-0.268l-0.233,0.002c-0.041-0.022-0.079-0.047-0.122-0.068c0.276-0.562,0.608-1.564-0.194-2.079
			c0.059-0.149,0.135-0.319,0.23-0.502c0.004,0,0.008,0,0.011,0c0.073,0.024,0.292,0.124,0.401,0.505
			c0.052,0.184,0.244,0.291,0.429,0.238c0.184-0.053,0.29-0.245,0.238-0.428c-0.144-0.503-0.442-0.778-0.698-0.909
			c0.122-0.149,0.29-0.323,0.493-0.457c0,0,1.27,0.462,1.28-0.446c0,0,0.018-1.001-0.749-1.48c-0.095-0.059-0.224-0.115-0.373-0.153
			c-0.038-0.243-0.183-0.722-0.748-0.889c0,0-0.273,0.367-0.161,0.929c-0.323,0.123-0.631,0.387-0.838,0.874
			c0,0-0.594,0.243-0.985,0.439c-0.541,0.271-1.229,0.907-1.444,1.399c-0.377,0.862-0.343,1.872,0.203,2.581
			c-0.293-0.173-0.413-0.36-0.413-0.36c-0.377-0.528-0.363-1.602-0.043-2.285c0.381-0.811,1.102-1.291,1.314-1.987
			c0.25-0.823,0.115-1.513-0.362-2.019c-0.504-0.536-1.254-0.624-1.833-0.532c-0.992,0.158-1.714,0.809-1.714,0.809
			c1.679,1.323-1.043,2.281,0.028,5.256c0.425,1.18,1.45,1.703,2.296,1.935c-0.849,0.712-1.022,1.683-1.022,1.683
			s-1.837-1.684-3.97-0.335c-1.944,1.23-1.422,3.155-1.422,3.155s-1.38,0.048-2.059,0.508c-0.99,0.672-1.729,2.408-0.939,3.737
			c1.203,2.026,3.913,1.792,5.51,0.439c1.529-1.297,2.944-2.415,4.727-2.875c0.191,1.1,0.4,2.397,0.602,3.833
			c-1.08,0.849-1.331,2.059-1.331,2.059s-2.179-2.179-4.854-0.594c-2.438,1.445-1.882,3.863-1.882,3.863s-0.224,0-0.548,0.026
			c-0.155-0.127-0.328-0.25-0.523-0.365c-0.739-0.438-1.436-0.559-2.049-0.516c-1.123-0.121-2.015,0.351-2.484,0.678
			c-0.281-0.723-1.139-2.233-3.423-2.233v0c-0.01,0-0.02,0-0.03,0c-0.01,0-0.019,0-0.03,0v0c-0.041,0-0.08,0.002-0.12,0.004
			c-0.04-0.001-0.079-0.004-0.12-0.004v0c-0.01,0-0.02,0-0.03,0c-0.01,0-0.019,0-0.03,0v0c-2.284,0-3.143,1.51-3.424,2.233
			c-0.468-0.327-1.361-0.8-2.483-0.678c-0.613-0.043-1.31,0.078-2.049,0.516c-2.216,1.313-1.711,3.512-1.711,3.512
			s-1.54-0.002-2.316,0.492c-1.131,0.72-2.024,2.655-1.196,4.191c0.821,1.524,2.389,1.986,3.891,1.722
			c0.901-0.079,1.807-0.421,2.533-1.001c2.15-1.72,4.377-3.144,6.824-3.239c1.109,3.667,3.699,5.971,5.73,7.271
			c-4.352,1.478-7.734,4.151-9.982,7.759c-1.789,0.118-3.385,0.944-4.509,2.202c-4.045-2.435-8.089,0.729-8.089,0.729
			c-3.483,3.355-1.806,7.225-5.547,7.354c-1.681,0.058-2.69-0.67-3.276-1.386c-0.151-0.301-2.272-2.742-4.436-2.742
			c-2.734,0-4.952,2.21-4.966,4.94c-0.421-0.096-0.858-0.149-1.308-0.149c-3.225,0-5.84,2.614-5.84,5.84
			c0,1.163,0.342,2.246,0.928,3.156h58.119c0.364-0.524,0.627-1.122,0.768-1.766h11.176c0.237-0.351,0.375-0.773,0.375-1.228
			c0-1.215-0.985-2.199-2.199-2.199c-0.054,0-0.106,0.004-0.158,0.008c-2.118-4.687-5.468-2.064-5.468-2.064
			c-1.542,1.485-0.8,3.199-2.456,3.256c-0.744,0.026-1.191-0.297-1.45-0.614c-0.009-0.019-0.038-0.058-0.079-0.108
			c-0.744-1.804-2.519-3.06-4.592-3.074c-3.732-0.026-6.03,4.187-7.712,4.129c-3.271-0.113-2.401-3.085-4.457-6.072h12.651
			c-0.027-0.457-0.115-1.988-0.115-1.988l0-0.001c-0.008-0.017-0.762-1.668-1.032-2.162l-0.002-0.003l-0.065,0.03l-0.456,0.216
			l-0.075,0.037c-0.115,0.057-0.214,0.106-0.281,0.103c-0.109-0.006-0.15-0.045-0.233-0.175c-0.023-0.036-0.035-0.069-0.035-0.104
			c0-0.059,0.036-0.12,0.112-0.205l0.643-0.714c0,0-0.086-0.463-0.089-0.481c0.033,0.027,0.181,0.147,0.38,0.308
			c0.169-0.036,0.45-0.044,0.798,0.143c0.24,0.129,0.397,0.325,0.58,0.552c0.123,0.153,0.262,0.325,0.447,0.505
			c0.089,0.086,0.174,0.155,0.259,0.215c0.157,0.031,0.345,0.048,0.565,0.031c0.135-0.01,0.296-0.043,0.442-0.089l0.25-0.066
			c0.234-0.066,0.477-0.134,0.731-0.123c0.325,0.014,0.522,0.115,0.649,0.234c0.144-0.057,0.423-0.135,0.716-0.023
			c0.388,0.148,0.583,0.468,0.583,0.956c0,0.161-0.021,0.341-0.064,0.538c-0.108,0.498-0.169,0.806-0.169,1.011
			c0,0.245,0.088,0.342,0.289,0.439c-0.062,0.012-0.434,0.074-0.7-0.137c-0.186-0.148-0.281-0.396-0.281-0.736
			c0-0.373,0.107-0.694,0.192-0.951c0.107-0.322,0.192-0.576,0.022-0.77c-0.113-0.129-0.297-0.116-0.417-0.09
			c0.043,0.085,0.066,0.175,0.066,0.287c0,0.105-0.019,0.228-0.056,0.38c-0.094,0.388-0.18,0.776-0.181,0.78l0.274,0.564
			c0,0-0.044,1.104-0.059,1.486h3.981c-0.021-0.359-0.077-1.335-0.077-1.335l0,0c-0.005-0.012-0.527-1.154-0.714-1.495l-0.001-0.002
			l-0.045,0.021l-0.315,0.149l-0.052,0.026c-0.08,0.04-0.148,0.074-0.194,0.071c-0.076-0.004-0.104-0.031-0.161-0.121
			c-0.016-0.025-0.024-0.048-0.024-0.072c0-0.041,0.025-0.083,0.077-0.142l0.445-0.494c0,0-0.06-0.32-0.062-0.333
			c0.026,0.021,0.148,0.121,0.311,0.252c0.12-0.021,0.306-0.019,0.534,0.104c0.167,0.09,0.277,0.227,0.404,0.385
			c0.086,0.106,0.183,0.227,0.312,0.352c0.036,0.035,0.07,0.064,0.104,0.093c0.116,0.026,0.259,0.042,0.43,0.029
			c0.093-0.007,0.205-0.03,0.306-0.062l0.173-0.046c0.162-0.046,0.33-0.093,0.506-0.085c0.225,0.009,0.361,0.079,0.449,0.162
			c0.099-0.04,0.293-0.093,0.496-0.016c0.268,0.102,0.403,0.324,0.403,0.661c0,0.112-0.015,0.236-0.044,0.372
			c-0.075,0.344-0.117,0.558-0.117,0.699c0,0.17,0.061,0.236,0.2,0.304c-0.043,0.008-0.3,0.051-0.484-0.095
			c-0.129-0.102-0.194-0.274-0.194-0.509c0-0.258,0.074-0.48,0.133-0.658c0.074-0.223,0.132-0.398,0.015-0.532
			c-0.079-0.09-0.206-0.08-0.288-0.062c0.029,0.058,0.046,0.121,0.046,0.198c0,0.073-0.013,0.158-0.038,0.263
			c-0.065,0.268-0.125,0.537-0.126,0.539l0.19,0.391c0,0-0.028,0.694-0.039,0.988H99.443z M63.416,3.094
			c0.161,0,0.291,0.13,0.291,0.291s-0.13,0.291-0.291,0.291c-0.161,0-0.291-0.13-0.291-0.291S63.255,3.094,63.416,3.094z
			 M45.72,30.12c1.415,0.594,2.768,1.54,4.091,2.598c0.725,0.58,1.632,0.922,2.533,1.001c1.502,0.264,3.07-0.198,3.891-1.722
			c0.5-0.928,0.369-2-0.059-2.863c1.349-1.016,2.685-1.854,4.213-2.292c-0.964,2.732-3.479,6.253-8.814,8.712
			C50.384,35.048,47.298,33.453,45.72,30.12z"/>
	</g>
	<path fill="#251C0F" d="M99.123,54.703c0,0.006,0,0.012,0,0.018h14.525c0.237-0.351,0.375-0.773,0.375-1.228
		c0-1.215-0.985-2.199-2.199-2.199c-0.054,0-0.106,0.004-0.158,0.008c-2.118-4.687-5.468-2.064-5.468-2.064
		c-1.542,1.485-0.8,3.199-2.456,3.256c-0.744,0.026-1.191-0.297-1.45-0.614c-0.067-0.133-1.006-1.214-1.964-1.214
		c-1.214,0-2.199,0.985-2.199,2.199C98.128,53.634,98.524,54.31,99.123,54.703z"/>
	<g>
		<path fill="#FFFFFF" d="M34.295,59.471c-0.628-0.301-1.127,0.075-1.127,0.075c0.22-2.145-0.553-3.095-0.983-3.45
			c0.066-0.158,0.096-0.267,0.099-0.279c0.302-0.098,0.522-0.381,0.522-0.716c0-0.292-0.169-0.544-0.413-0.669
			c-0.042-0.262-0.127-0.539-0.274-0.815c-0.54-1.012-1.547-1.018-1.872-1.018c-0.326,0-1.298,0.025-1.872,1.018
			c-0.158,0.273-0.244,0.552-0.286,0.821c-0.238,0.127-0.401,0.375-0.401,0.663c0,0.33,0.214,0.61,0.51,0.712
			c0.049,0.163,0.09,0.263,0.086,0.265c0.004,0.009,0.009,0.019,0.013,0.028c-0.432,0.363-1.189,1.314-0.971,3.44
			c0,0-0.499-0.376-1.127-0.075c-0.576,0.275-0.718,1.21-0.25,2.078l0.943,2.262c0,0-0.175,0.052-0.351,0.117
			c-0.22,0.082-0.448,0.199-0.426,0.426c0,0,0,0.201,0.376,0.201c0.246,0,1.753,0,2.763,0c-0.188-0.175-0.27-0.493-0.336-0.936
			c-0.1-0.673-1.194-4.06-1.205-4.094c0.105,0.324,1.325,3.393,1.424,4.062c0.054,0.368,0.13,0.726,0.313,0.842
			c0.09,0.057,0.214,0.061,0.378,0.013c0.087-0.026,0.149-0.073,0.187-0.146c0.105-0.194,0.017-0.491,0.016-0.495
			c-0.001-0.003-0.002-0.006-0.002-0.009l-0.833-4.531c0.011,0.004,0.764,3.122,0.978,4.15c0.217-0.98,1.123-4.083,1.117-4.028
			c-0.001,0.004-0.001,0.008-0.002,0.012l-0.966,4.363c-0.001,0.004-0.002,0.008-0.003,0.012c-0.001,0.001-0.027,0.08-0.039,0.183
			c0.003,0.033,0.005,0.067,0.005,0.104c0,0.029-0.001,0.058-0.004,0.088c0.006,0.041,0.018,0.082,0.036,0.12
			c0.036,0.073,0.096,0.123,0.183,0.152c0.162,0.054,0.286,0.054,0.378,0c0.186-0.111,0.274-0.465,0.341-0.832
			c0.121-0.663,1.581-4.069,1.56-4.012c-0.012,0.034-1.221,3.383-1.343,4.052c-0.082,0.447-0.176,0.764-0.376,0.931
			c1.001,0,2.681,0,2.941,0c0.376,0,0.376-0.201,0.376-0.201c0.023-0.227-0.206-0.344-0.426-0.426
			c-0.176-0.065-0.351-0.117-0.351-0.117l0.943-2.262C35.012,60.681,34.871,59.746,34.295,59.471z M32.42,54.667
			c0.124,0.105,0.203,0.26,0.203,0.435c0,0.206-0.111,0.387-0.276,0.486C32.403,55.343,32.446,55.023,32.42,54.667z M27.871,55.101
			c0-0.168,0.073-0.317,0.189-0.422c-0.022,0.344,0.021,0.658,0.076,0.901C27.978,55.48,27.871,55.303,27.871,55.101z M27.726,59.43
			c0.013-0.02,0.032-0.038,0.058-0.045C27.812,59.374,27.772,59.397,27.726,59.43z M31.384,55.518
			c-0.138,0.157-0.257,0.226-0.327,0.554c-0.076,0.354,0.109,0.612,0.015,0.919c-0.022,0.074-0.049,0.138-0.082,0.196
			c-0.211,0.079-0.455,0.126-0.739,0.126c-0.286,0-0.533-0.047-0.748-0.126c-0.033-0.058-0.059-0.122-0.081-0.195
			c-0.094-0.306,0.091-0.565,0.016-0.919c-0.07-0.327-0.189-0.397-0.328-0.554c-0.123-0.141-0.272-0.363-0.264-0.714
			c0.02-0.973,1.093-0.989,1.401-0.973c0.309-0.016,1.381,0,1.401,0.973C31.656,55.155,31.508,55.377,31.384,55.518z"/>
		<circle fill="#F5F1E8" cx="30.783" cy="54.798" r="0.211"/>
		<circle fill="#F5F1E8" cx="29.711" cy="54.798" r="0.211"/>
		<circle fill="#F5F1E8" cx="30.41" cy="55.959" r="0.12"/>
		<circle fill="#F5F1E8" cx="30.017" cy="55.959" r="0.12"/>
	</g>
	<g>
		<g>
			<g>
				<path fill="#43AAA4" d="M91.585,57.355c0,0-1.094,0.949-2.158,0C89.427,57.355,90.404,57.901,91.585,57.355z"/>
			</g>
		</g>
		<g>
			<g>
				<path fill="#43AAA4" d="M98.519,57.355c0,0-1.093,0.949-2.158,0C96.361,57.355,97.34,57.901,98.519,57.355z"/>
			</g>
		</g>
		<g>
			<g>
				<path fill="#43AAA4" d="M92.817,58.268c0,0-1.094,0.949-2.158,0C90.659,58.268,91.637,58.815,92.817,58.268z"/>
			</g>
		</g>
		<g>
			<g>
				<path fill="#43AAA4" d="M95.128,58.268c0,0-1.093,0.949-2.158,0C92.971,58.268,93.949,58.815,95.128,58.268z"/>
			</g>
		</g>
		<g>
			<g>
				<path fill="#43AAA4" d="M97.44,58.268c0,0-1.093,0.949-2.158,0C95.282,58.268,96.261,58.815,97.44,58.268z"/>
			</g>
		</g>
		<g>
			<g>
				<g>
					<path fill="#F5F1E8" d="M92.168,49.726c0.274-0.33,0.887-0.162,0.887-0.162v0.959c-0.357-0.61-0.734-0.048-1.046-0.145
						c-0.38-0.118-0.424-0.49-0.424-0.49C91.775,50.085,91.895,50.056,92.168,49.726z"/>
				</g>
			</g>
			<path fill="#251C0F" d="M97.669,55.954c-0.312,0.09-1.435,0.337-4.306,0.438l-0.19-6.896c0.036-0.019,0.06-0.059,0.06-0.103
				c0-0.064-0.048-0.116-0.107-0.116c-0.059,0-0.108,0.052-0.108,0.116c0,0.052,0.033,0.096,0.079,0.11v6.897
				c-0.854,0.027-1.855,0.04-3.024,0.034c0,0-0.132-0.02-0.129,0.205c0.003,0.227-0.076,1.031,0.194,1.031h0.68
				c0.034-0.02,0.075-0.036,0.122-0.046c0.254-0.048,0.564-0.332,0.827-0.243c0.119,0.04,0.237,0.103,0.351,0.158
				c0.12,0.057,0.256,0.07,0.381,0.118c0.011,0.004,0.022,0.008,0.033,0.013h0.595c0.025-0.01,0.051-0.019,0.081-0.024
				c0.259-0.051,0.479-0.233,0.747-0.251c0.246-0.017,0.459,0.152,0.683,0.23c0.035,0.012,0.065,0.029,0.093,0.046h0.845
				c0.005-0.003,0.009-0.007,0.015-0.01c0.106-0.064,0.224-0.104,0.333-0.167c0.121-0.069,0.242-0.12,0.384-0.116
				c0.173,0.006,0.295,0.108,0.44,0.183c0.063,0.033,0.132,0.054,0.202,0.073c0.204-0.111,0.749-0.501,1.018-1.638
				C97.968,55.998,98.08,55.835,97.669,55.954z"/>
			<g>
				<g>
					<path fill="#43AAA4" d="M92.11,56.212c0,0,2.725-0.269,3.849-0.614c1.126-0.344,2.195,0.077,2.232,0.312
						c0,0,0.21-4.706-5.147-5.599C93.044,50.311,96.49,53.896,92.11,56.212z"/>
				</g>
			</g>
			<g>
				<g>
					<path fill="#43AAA4" d="M92.96,50.716v4.839c0,0-2.873,0.713-3.362,0C89.598,55.556,90.923,55.542,92.96,50.716z"/>
				</g>
			</g>
		</g>
	</g>
	<path fill="#43AAA4" d="M214.001,67.488v-6.786c0-1.845-1.519-3.342-3.392-3.342c-1.873,0-3.392,1.497-3.392,3.342v6.786H214.001z"
		/>
	<path fill="none" stroke="#F5F1E8" stroke-miterlimit="10" d="M213.445,67.661c0-1.133,0-6.596,0-6.596
		c0-1.709-1.128-3.095-2.837-3.095c-1.709,0-2.837,1.386-2.837,3.095c0,0,0,5.211,0,6.51"/>
	<g>
		<path fill="#251C0F" d="M238.025,8.251c-0.159-0.171-0.259-0.389-0.283-0.63h-1.154c-0.618-0.003-0.936,0.174-1.024,0.571
			c-0.088,0.389,0.1,1.036,0.436,1.24c0.365,0.218,0.66,0.168,1.019-0.174L238.025,8.251z"/>
		<path fill="#251C0F" d="M236.588,7.412h1.154c0.03-0.241,0.13-0.459,0.289-0.628l-0.053-0.05
			c-0.041-0.041-0.094-0.091-0.147-0.147c-0.312-0.312-0.813-0.815-0.813-0.815c-0.359-0.342-0.653-0.392-1.019-0.174
			c-0.336,0.203-0.524,0.854-0.436,1.243C235.651,7.235,235.969,7.412,236.588,7.412z"/>
		<path fill="#251C0F" d="M240.522,5.678c0.342-0.359,0.394-0.651,0.176-1.016c-0.206-0.338-0.854-0.521-1.242-0.436
			c-0.389,0.085-0.565,0.392-0.571,0.983v0.038v1.193c0.236,0.012,0.459,0.103,0.63,0.244L240.522,5.678z"/>
		<path fill="#251C0F" d="M237.819,8.649l-0.707,0.704c-0.341,0.36-0.394,0.654-0.176,1.016c0.206,0.339,0.854,0.524,1.243,0.439
			c0.389-0.085,0.565-0.392,0.571-0.986V9.782V8.602c-0.242-0.018-0.459-0.109-0.63-0.256L237.819,8.649z"/>
		<path fill="#251C0F" d="M238.125,6.694c0.171-0.147,0.389-0.236,0.624-0.253c0-0.251,0-1.193,0-1.193V5.209
			c-0.006-0.592-0.183-0.898-0.571-0.983c-0.389-0.085-1.036,0.097-1.243,0.436c-0.218,0.365-0.165,0.657,0.176,1.016L238.125,6.694
			z"/>
		<path fill="#251C0F" d="M240.616,5.772l-1.001,1.007c0.159,0.168,0.265,0.389,0.289,0.633h1.143c0.618,0,0.936-0.177,1.025-0.571
			c0.083-0.389-0.1-1.04-0.436-1.243C241.269,5.381,240.975,5.431,240.616,5.772z"/>
		<circle fill="#251C0F" cx="238.823" cy="7.521" r="0.951"/>
		<path fill="#251C0F" d="M241.046,7.621h-1.143c-0.023,0.244-0.13,0.465-0.289,0.636l1.001,1.001
			c0.359,0.342,0.654,0.392,1.019,0.174c0.336-0.203,0.519-0.851,0.436-1.24C241.982,7.795,241.664,7.618,241.046,7.621z"/>
		<path fill="#251C0F" d="M239.815,8.649l-0.295-0.297c-0.176,0.147-0.394,0.238-0.636,0.25v1.181v0.039
			c0.006,0.595,0.183,0.901,0.571,0.986c0.389,0.085,1.036-0.1,1.242-0.439c0.218-0.362,0.165-0.657-0.176-1.016L239.815,8.649z"/>
	</g>
	<rect x="228.03" y="24.596" fill="#43AAA4" width="6.407" height="1.508"/>
	<rect x="235.814" y="24.596" fill="#43AAA4" width="6.407" height="1.508"/>
	<rect x="228.03" y="38.541" fill="#43AAA4" width="6.407" height="1.507"/>
	<rect x="235.814" y="38.541" fill="#43AAA4" width="6.407" height="1.507"/>
	<rect x="243.852" y="38.541" fill="#43AAA4" width="6.407" height="1.507"/>
	<rect x="228.03" y="52.486" fill="#43AAA4" width="6.407" height="1.508"/>
	<rect x="235.814" y="52.486" fill="#43AAA4" width="6.407" height="1.508"/>
	<path fill="#251C0F" d="M163.306,47.915v-1.232c0-0.272-0.076-0.469-0.173-0.612c-0.067-0.673-0.388-1.143-0.962-1.392
		c-0.52-0.225-1.128-0.221-1.455-0.219l-0.079,0l-1.915,0.004c-0.064,0.264-0.301,0.46-0.584,0.46c-0.283,0-0.518-0.195-0.584-0.458
		l-0.491,0.001l-1.074,0.003c-0.024,0-0.048-0.001-0.071-0.003c0.016-0.011,0.032-0.022,0.047-0.034
		c0.023-0.019,0.045-0.037,0.068-0.055c0.202-0.161,0.341-0.27,0.168-0.487c-0.188-0.238-0.345-0.037-0.577,0.155
		c-0.08-0.043-0.355-0.224-0.467-0.713c0,0-0.197,0.306-0.077,0.675c0.011,0.033,0.024,0.067,0.04,0.101
		c-0.04-0.009-0.083-0.015-0.13-0.015c-0.349,0-0.557,0.202-0.694,0.676c-0.052,0.178-0.112,0.309-0.183,0.422
		c-0.03-0.011-0.061-0.02-0.094-0.025c-0.027-0.004-0.054-0.007-0.082-0.007c-0.278,0-0.503,0.225-0.503,0.503
		c0,0.278,0.236,0.508,0.514,0.508c0.195,0,1.453,0.001,1.453,0.001l0.014,0.022c0.001,0.003,0.152,0.254,0.503,0.916
		c0.296,0.558,0.872,0.879,0.878,0.882l0.019,0.01l0.331,1.729c0,0-0.142,0.288-0.189,0.383c0.118,0,0.717,0,0.793,0
		c0-0.088,0-1.886,0-1.886v-0.046l2.177,0.007c0.066,0.085,0.149,0.159,0.247,0.216v0.084v0.201c0,0.051,0.041,0.092,0.092,0.092
		c0.051,0,0.092-0.041,0.092-0.092v-0.127v-0.077c0.072,0.023,0.148,0.038,0.227,0.044v0.073v0.165c0,0.051,0.041,0.092,0.092,0.092
		c0.051,0,0.092-0.041,0.092-0.092v-0.167V48.53c0.069-0.007,0.137-0.021,0.2-0.042v0.077v0.127c0,0.051,0.042,0.092,0.092,0.092
		c0.051,0,0.092-0.041,0.092-0.092v-0.202v-0.084c0.096-0.056,0.178-0.128,0.243-0.211l0.15,0.001l0.298,1.536
		c0,0-0.142,0.288-0.189,0.383c0.118,0,0.717,0,0.793,0c0-0.088,0-2.076,0-2.076l0.019-0.014c0.11-0.08,0.623-0.506,0.677-1.5
		c0.007,0.051,0.016,0.1,0.016,0.159v1.232c-0.072,0.088-0.172,0.239-0.172,0.412c0,0.271,0.245,0.491,0.245,0.491
		s0.246-0.22,0.246-0.491C163.478,48.154,163.378,48.003,163.306,47.915z M154.785,44.701c-0.06,0-0.109-0.049-0.109-0.109
		c0-0.06,0.049-0.109,0.109-0.109s0.109,0.049,0.109,0.109C154.894,44.652,154.846,44.701,154.785,44.701z M157.104,47.595
		c-0.333,0-0.603-0.27-0.603-0.603c0-0.333,0.27-0.603,0.603-0.603c0.333,0,0.603,0.27,0.603,0.603
		C157.707,47.325,157.437,47.595,157.104,47.595z M161.324,46.561c-0.333,0-0.603-0.27-0.603-0.603c0-0.333,0.27-0.603,0.603-0.603
		c0.333,0,0.603,0.27,0.603,0.603C161.927,46.291,161.657,46.561,161.324,46.561z"/>
	<path fill="#251C0F" d="M173.085,42.43v-0.927c0-0.197-0.053-0.343-0.122-0.45c-0.047-0.513-0.289-0.87-0.725-1.059
		c-0.312-0.135-0.665-0.16-0.921-0.165c-0.036,0.257-0.254,0.455-0.52,0.455c-0.266,0-0.484-0.198-0.52-0.454l-1.885,0.004
		l-0.809,0.002c-0.019,0-0.036-0.001-0.053-0.003c0.012-0.008,0.024-0.017,0.035-0.026c0.018-0.014,0.035-0.028,0.051-0.041
		c0.152-0.121,0.257-0.203,0.127-0.367c-0.142-0.179-0.259-0.028-0.434,0.116c-0.06-0.032-0.268-0.169-0.351-0.536
		c0,0-0.149,0.23-0.059,0.509c0.008,0.025,0.018,0.05,0.031,0.075c-0.031-0.007-0.063-0.011-0.097-0.011
		c-0.263,0-0.419,0.152-0.523,0.509c-0.039,0.134-0.084,0.233-0.138,0.317c-0.022-0.008-0.046-0.015-0.07-0.019
		c-0.02-0.004-0.041-0.006-0.061-0.006c-0.209,0-0.379,0.17-0.379,0.379c0,0.209,0.178,0.382,0.387,0.382
		c0.146,0,1.094,0.001,1.094,0.001l0.01,0.017c0.001,0.002,0.114,0.191,0.379,0.69c0.223,0.42,0.657,0.662,0.661,0.664l0.014,0.008
		l0.249,1.302c0,0-0.106,0.217-0.142,0.288c0.089,0,0.539,0,0.597,0c0-0.066,0-1.42,0-1.42v-0.035l1.657,0.006
		c0.047,0.057,0.101,0.108,0.168,0.147v0.063V43c0,0.038,0.031,0.069,0.069,0.069c0.038,0,0.069-0.031,0.069-0.069v-0.096v-0.058
		c0.054,0.017,0.112,0.029,0.171,0.033v0.056v0.124c0,0.038,0.031,0.069,0.069,0.069c0.038,0,0.069-0.031,0.069-0.069v-0.126v-0.056
		c0.052-0.005,0.103-0.016,0.151-0.031v0.058V43c0,0.038,0.031,0.069,0.069,0.069s0.069-0.031,0.069-0.069v-0.152v-0.063
		c0.065-0.038,0.119-0.089,0.165-0.144l0.13,0.001l0.224,1.156c0,0-0.106,0.217-0.142,0.288c0.089,0,0.54,0,0.597,0
		c0-0.066,0-1.563,0-1.563l0.015-0.011c0.082-0.06,0.456-0.377,0.505-1.106c0.004,0.032,0.01,0.061,0.01,0.097v0.927
		c-0.054,0.066-0.13,0.18-0.13,0.31c0,0.204,0.185,0.369,0.185,0.369s0.185-0.165,0.185-0.369
		C173.214,42.61,173.14,42.496,173.085,42.43z M166.728,40.018c-0.06,0-0.109-0.049-0.109-0.109c0-0.06,0.049-0.109,0.109-0.109
		s0.109,0.049,0.109,0.109C166.837,39.97,166.788,40.018,166.728,40.018z M168.645,41.637c-0.182,0-0.33-0.148-0.33-0.33
		c0-0.182,0.148-0.33,0.33-0.33c0.182,0,0.33,0.148,0.33,0.33C168.974,41.49,168.827,41.637,168.645,41.637z M171.745,41.967
		c-0.182,0-0.33-0.148-0.33-0.33c0-0.182,0.148-0.33,0.33-0.33s0.33,0.148,0.33,0.33C172.075,41.82,171.927,41.967,171.745,41.967z"
		/>
	<path fill="#251C0F" d="M184.493,50.93v-1.232c0-0.272-0.076-0.469-0.173-0.612c-0.067-0.673-0.388-1.143-0.962-1.392
		c-0.52-0.225-1.128-0.221-1.455-0.219l-0.079,0l-3.574,0.007l-0.885-0.211l-0.098-0.176c0.083-0.067,0.15-0.128,0.18-0.194
		c0.152,0.009,0.254-0.029,0.286-0.229c0.048-0.3-0.206-0.279-0.504-0.321c-0.022-0.088-0.265-0.239,0.019-0.651
		c0,0-0.168-0.114-0.36,0.225c-0.017,0.031-0.033,0.063-0.047,0.098c-0.02-0.036-0.046-0.071-0.077-0.105
		c-0.236-0.257-0.525-0.273-0.967-0.054c-0.166,0.082-0.303,0.126-0.434,0.151c-0.012-0.03-0.027-0.059-0.045-0.086
		c-0.015-0.022-0.032-0.044-0.05-0.065c-0.187-0.204-0.506-0.218-0.71-0.03c-0.205,0.188-0.215,0.518-0.027,0.722
		c0.131,0.143,2.058,2.371,2.058,2.371l0.014,0.022c0.001,0.003,0.152,0.512,0.503,1.175c0.048,0.091,0.106,0.174,0.166,0.252
		c0.029-0.152,0.157-0.27,0.318-0.27c0.182,0,0.33,0.148,0.33,0.33c0,0.166-0.124,0.297-0.284,0.32
		c0.19,0.16,0.346,0.248,0.349,0.25l0.019,0.01l0.331,1.729c0,0-0.142,0.288-0.189,0.383c0.118,0,0.717,0,0.793,0
		c0-0.088,0-1.886,0-1.886v-0.046l2.153,0.007c0.069,0.1,0.16,0.185,0.271,0.25v0.084v0.201c0,0.051,0.041,0.092,0.092,0.092
		c0.051,0,0.092-0.041,0.092-0.092v-0.127v-0.077c0.072,0.023,0.148,0.038,0.227,0.044v0.073v0.165c0,0.051,0.041,0.092,0.092,0.092
		c0.051,0,0.092-0.041,0.092-0.092v-0.167v-0.074c0.069-0.007,0.137-0.021,0.2-0.042v0.077v0.127c0,0.051,0.042,0.092,0.092,0.092
		c0.051,0,0.092-0.041,0.092-0.092v-0.202v-0.084c0.108-0.063,0.199-0.147,0.267-0.245l0.125,0l0.298,1.536
		c0,0-0.142,0.288-0.189,0.383c0.118,0,0.717,0,0.793,0c0-0.088,0-2.076,0-2.076l0.019-0.014c0.11-0.08,0.623-0.506,0.677-1.5
		c0.007,0.051,0.016,0.1,0.016,0.159v1.232c-0.072,0.088-0.172,0.239-0.172,0.412c0,0.271,0.245,0.491,0.245,0.491
		s0.246-0.22,0.246-0.491C184.665,51.169,184.565,51.017,184.493,50.93z M176.354,46.267c-0.06,0-0.109-0.049-0.109-0.109
		s0.049-0.109,0.109-0.109s0.109,0.049,0.109,0.109S176.414,46.267,176.354,46.267z M180.336,48.456
		c0-0.291,0.236-0.528,0.528-0.528s0.528,0.236,0.528,0.528c0,0.291-0.236,0.528-0.528,0.528S180.336,48.748,180.336,48.456z
		 M182.668,50.681c-0.182,0-0.33-0.148-0.33-0.33c0-0.182,0.148-0.33,0.33-0.33c0.182,0,0.33,0.148,0.33,0.33
		C182.998,50.533,182.85,50.681,182.668,50.681z"/>
	<circle fill="none" stroke="#251C0F" stroke-miterlimit="10" cx="266.611" cy="18.829" r="3.617"/>
	<path fill="#251C0F" d="M197.152,50.781h-3.188v-0.258c0-0.143-0.116-0.258-0.258-0.258c-0.143,0-0.258,0.116-0.258,0.258v0.258
		h-2.411v-0.258c0-0.143-0.116-0.258-0.258-0.258c-0.143,0-0.258,0.116-0.258,0.258v0.258h-2.411v-0.258
		c0-0.143-0.116-0.258-0.258-0.258c-0.143,0-0.258,0.116-0.258,0.258v0.258h-2.411v-0.258c0-0.143-0.116-0.258-0.258-0.258
		s-0.258,0.116-0.258,0.258v0.258h-2.411v-0.258c0-0.143-0.116-0.258-0.258-0.258c-0.143,0-0.258,0.116-0.258,0.258v0.258h-2.411
		v-0.258c0-0.143-0.116-0.258-0.258-0.258c-0.143,0-0.258,0.116-0.258,0.258v0.258h-2.411v-0.258c0-0.143-0.116-0.258-0.258-0.258
		s-0.258,0.116-0.258,0.258v0.258h-2.411v-0.258c0-0.143-0.116-0.258-0.258-0.258c-0.143,0-0.258,0.116-0.258,0.258v0.258h-2.411
		v-0.258c0-0.143-0.116-0.258-0.258-0.258c-0.143,0-0.258,0.116-0.258,0.258v0.258h-2.411v-0.258c0-0.143-0.116-0.258-0.258-0.258
		c-0.143,0-0.258,0.116-0.258,0.258v0.258h-2.411v-0.258c0-0.143-0.116-0.258-0.258-0.258c-0.143,0-0.258,0.116-0.258,0.258v0.258
		h-2.411v-0.258c0-0.143-0.116-0.258-0.258-0.258c-0.143,0-0.258,0.116-0.258,0.258v0.258h-2.411v-0.258
		c0-0.143-0.116-0.258-0.258-0.258c-0.143,0-0.258,0.116-0.258,0.258v0.258h-2.411v-0.258c0-0.143-0.116-0.258-0.258-0.258
		c-0.143,0-0.258,0.116-0.258,0.258v0.258h-2.411v-0.258c0-0.143-0.116-0.258-0.258-0.258c-0.143,0-0.258,0.116-0.258,0.258v0.258
		h-2.411v-0.258c0-0.143-0.116-0.258-0.258-0.258c-0.143,0-0.258,0.116-0.258,0.258v0.258h-2.411v-0.258
		c0-0.143-0.116-0.258-0.258-0.258s-0.258,0.116-0.258,0.258v0.258h-2.411v-0.258c0-0.143-0.116-0.258-0.258-0.258
		c-0.143,0-0.258,0.116-0.258,0.258v0.258h-2.411v-0.258c0-0.143-0.116-0.258-0.258-0.258c-0.143,0-0.258,0.116-0.258,0.258v0.258
		h-2.412v-0.258c0-0.143-0.116-0.258-0.258-0.258s-0.258,0.116-0.258,0.258v0.258h-2.411v-0.258c0-0.143-0.116-0.258-0.258-0.258
		c-0.143,0-0.258,0.116-0.258,0.258v0.258h-0.431c-0.143,0-0.258,0.116-0.258,0.258c0,0.143,0.116,0.258,0.258,0.258h0.431v2.907
		h-23.339c-0.143,0-0.258,0.116-0.258,0.258c0,0.143,0.116,0.258,0.258,0.258h84.746c0.143,0,0.258-0.116,0.258-0.258
		c0-0.143-0.116-0.258-0.258-0.258h-2.327v-2.907h3.188c0.143,0,0.258-0.116,0.258-0.258
		C197.41,50.896,197.294,50.781,197.152,50.781z M190.519,51.297v2.907h-2.411v-2.907H190.519z M187.591,51.297v2.907h-2.411v-2.907
		H187.591z M184.663,51.297v2.907h-2.411v-2.907H184.663z M181.734,51.297v2.907h-2.411v-2.907H181.734z M178.806,51.297v2.907
		h-2.411v-2.907H178.806z M175.878,51.297v2.907h-2.411v-2.907H175.878z M172.95,51.297v2.907h-2.411v-2.907H172.95z
		 M170.022,51.297v2.907h-2.411v-2.907H170.022z M167.094,51.297v2.907h-2.411v-2.907H167.094z M164.166,51.297v2.907h-2.411v-2.907
		H164.166z M161.238,51.297v2.907h-2.411v-2.907H161.238z M158.309,51.297v2.907h-2.411v-2.907H158.309z M155.381,51.297v2.907
		h-2.411v-2.907H155.381z M152.453,51.297v2.907h-2.411v-2.907H152.453z M149.525,51.297v2.907h-2.411v-2.907H149.525z
		 M146.597,51.297v2.907h-2.411v-2.907H146.597z M143.669,51.297v2.907h-2.411v-2.907H143.669z M140.741,51.297v2.907h-2.412v-2.907
		H140.741z M135.401,51.297h2.411v2.907h-2.411V51.297z M191.036,54.204v-2.907h2.411v2.907H191.036z"/>
	<g>
		<path fill="#251C0F" d="M265.154,27.675c-0.695,0-1.258,0.563-1.258,1.258c0,0.695,0.563,1.258,1.258,1.258
			c0.695,0,1.258-0.563,1.258-1.258C266.411,28.239,265.848,27.675,265.154,27.675z M265.154,29.893
			c-0.53,0-0.959-0.429-0.959-0.959c0-0.53,0.429-0.959,0.959-0.959c0.53,0,0.959,0.429,0.959,0.959
			C266.113,29.463,265.684,29.893,265.154,29.893z"/>
		<path fill="#251C0F" d="M265.717,28.867c-0.001,0-0.001,0-0.002,0l-0.431,0.021c-0.019-0.055-0.069-0.095-0.13-0.095
			c-0.001,0-0.002,0-0.003,0l-0.188-0.604c-0.007-0.02-0.029-0.031-0.049-0.026c-0.02,0.007-0.032,0.028-0.025,0.049l0.189,0.606
			c-0.037,0.025-0.063,0.066-0.063,0.114c0,0.077,0.062,0.14,0.14,0.14c0.066,0,0.118-0.046,0.133-0.107l0.432-0.021
			c0.021-0.001,0.038-0.019,0.037-0.041C265.755,28.883,265.737,28.867,265.717,28.867z"/>
	</g>
	<path fill="#43AAA4" d="M270.003,67.476v-6.887c0-1.873-1.519-3.392-3.392-3.392c-1.873,0-3.392,1.519-3.392,3.392v6.887H270.003z"
		/>
	<path fill="none" d="M270.003,67.476v-6.887c0-1.873-1.519-3.392-3.392-3.392c-1.873,0-3.392,1.519-3.392,3.392v6.887H270.003z"/>
	<g>
		<path fill-rule="evenodd" fill="#251C0F" d="M190.726,35.354c-0.284-0.702-0.541-1.413-0.591-2.179
			c-0.009-0.132-0.056-0.246-0.141-0.352c-0.174-0.22-0.337-0.449-0.504-0.675c-0.289-0.389-0.577-0.779-0.87-1.175
			c-0.025,0.035-0.046,0.062-0.064,0.09c-0.482,0.739-0.965,1.477-1.444,2.217c-0.041,0.063-0.064,0.14-0.082,0.214
			c-0.03,0.122-0.037,0.25-0.076,0.368c-0.206,0.623-0.416,1.246-0.625,1.868c-0.038,0.042-0.065,0.075-0.071,0.088
			c-0.107,0.131-0.292,0.265-0.6,0.254c-0.686-0.023-0.378-0.733-1.017-1.347c0,0-0.101-0.079-0.265-0.156
			c-0.007-0.003-0.013-0.006-0.019-0.009c-0.002-0.001-0.003-0.002-0.005-0.002c-0.008-0.004-0.016-0.007-0.024-0.011
			c-0.122-0.052-0.272-0.101-0.44-0.118c-0.878-1.868-2.239-0.803-2.239-0.803c-0.638,0.615-0.331,1.324-1.017,1.347
			c-0.308,0.011-0.493-0.123-0.6-0.254c-0.028-0.055-0.417-0.502-0.813-0.502c-0.501,0-0.907,0.405-0.91,0.905
			c-0.077-0.018-0.157-0.027-0.24-0.027c-0.591,0-1.07,0.479-1.07,1.07c0,0.213,0.063,0.412,0.17,0.578h8.816h1.833
			c0.096,0,0.192,0,0.288,0c0.003-0.024,0.007-0.04,0.007-0.057c-0.001-0.42-0.003-0.84-0.003-1.261c0-0.064,0-0.131,0.016-0.193
			c0.068-0.256,0.298-0.419,0.54-0.389c0.263,0.032,0.457,0.251,0.46,0.528c0.004,0.412,0.001,0.823,0.001,1.235
			c0,0.046,0,0.092,0,0.135c0.734,0,1.45,0,2.175,0c-0.02-0.05-0.035-0.091-0.051-0.129
			C191.076,36.192,190.896,35.775,190.726,35.354z M188.896,33.599c-0.178,0-0.337,0-0.52,0c0-0.19-0.002-0.378,0.001-0.566
			c0.002-0.086,0.003-0.173,0.024-0.255c0.034-0.13,0.133-0.195,0.246-0.181c0.142,0.017,0.243,0.106,0.247,0.238
			C188.901,33.086,188.896,33.336,188.896,33.599z"/>
		<path fill-rule="evenodd" fill="#251C0F" d="M192.043,33.13c-1.094-0.715-2.175-1.42-3.256-2.126
			c-0.005,0.007-0.01,0.013-0.014,0.02c0.764,1.031,1.527,2.061,2.302,3.107C191.403,33.792,191.721,33.463,192.043,33.13z"/>
		<path fill-rule="evenodd" fill="#251C0F" d="M186.33,34.305c0.714-1.095,1.418-2.175,2.122-3.255
			c-0.007-0.005-0.014-0.01-0.02-0.016c-1.031,0.765-2.062,1.529-3.104,2.301C185.663,33.66,185.994,33.98,186.33,34.305z"/>
		<path fill-rule="evenodd" fill="#251C0F" d="M188.46,30.679c-0.734-1.049-1.469-2.098-2.21-3.158
			c-0.326,0.338-0.646,0.668-0.969,1.002c1.061,0.733,2.107,1.457,3.154,2.181C188.443,30.695,188.452,30.687,188.46,30.679z"/>
		<path fill-rule="evenodd" fill="#251C0F" d="M188.755,30.738c1.058-0.742,2.116-1.483,3.18-2.229
			c-0.341-0.33-0.667-0.645-1.001-0.969c-0.736,1.066-1.466,2.123-2.197,3.18C188.743,30.726,188.749,30.732,188.755,30.738z"/>
		<path fill-rule="evenodd" fill="#251C0F" d="M189.642,29.247c-0.5-0.681-1.557-0.686-2.078-0.008
			c0.347,0.494,0.694,0.99,1.049,1.496C188.966,30.225,189.305,29.735,189.642,29.247z"/>
		<path fill-rule="evenodd" fill="#251C0F" d="M187.158,29.934c-0.117,0.239-0.19,0.663-0.154,0.89c0.095,0,0.193,0,0.297,0
			c-0.03,0.335-0.059,0.655-0.09,1c0.44-0.325,0.862-0.638,1.293-0.959C188.045,30.547,187.603,30.241,187.158,29.934z"/>
		<path fill-rule="evenodd" fill="#251C0F" d="M190.079,29.924c-0.464,0.325-0.896,0.628-1.339,0.939
			c0.402,0.262,0.788,0.514,1.19,0.776c-0.036-0.28-0.069-0.54-0.103-0.814c0.134,0,0.257,0,0.415,0
			C190.186,30.519,190.134,30.234,190.079,29.924z"/>
	</g>
	<circle fill="#F5F1E8" cx="212.391" cy="63.458" r="0.496"/>
	<circle fill="#F5F1E8" cx="268.664" cy="63.458" r="0.496"/>
	<path fill="#43AAA4" d="M296.7,53.936c0,0-0.32,0.163-0.638,0.5c-0.13-0.173-0.292-0.347-0.495-0.522c0,0-0.206,0.165-0.418,0.46
		c-0.156-0.146-0.343-0.288-0.568-0.423c0,0-1.118,1.211-0.351,2.527c0.683,1.172,2.197,0.859,2.513,0.461
		C296.744,56.94,298.046,55.688,296.7,53.936z"/>
	<path fill="#43AAA4" d="M300.834,51.352c0,0-0.32,0.163-0.638,0.5c-0.13-0.173-0.292-0.347-0.495-0.522c0,0-0.206,0.165-0.418,0.46
		c-0.156-0.146-0.343-0.288-0.568-0.423c0,0-1.118,1.211-0.351,2.527c0.683,1.172,2.197,0.859,2.513,0.461
		C300.878,54.356,302.18,53.104,300.834,51.352z"/>
	<path fill="#43AAA4" d="M304.968,53.936c0,0-0.32,0.163-0.638,0.5c-0.13-0.173-0.292-0.347-0.495-0.522c0,0-0.206,0.165-0.418,0.46
		c-0.156-0.146-0.343-0.288-0.568-0.423c0,0-1.118,1.211-0.351,2.527c0.683,1.172,2.197,0.859,2.513,0.461
		C305.012,56.94,306.314,55.688,304.968,53.936z"/>
	<path fill="#43AAA4" d="M309.102,51.352c0,0-0.32,0.163-0.638,0.5c-0.13-0.173-0.292-0.347-0.495-0.522c0,0-0.206,0.165-0.418,0.46
		c-0.156-0.146-0.343-0.288-0.568-0.423c0,0-1.118,1.211-0.351,2.527c0.683,1.172,2.197,0.859,2.513,0.461
		C309.146,54.356,310.448,53.104,309.102,51.352z"/>
	<path fill="#43AAA4" d="M313.236,53.936c0,0-0.32,0.163-0.638,0.5c-0.13-0.173-0.292-0.347-0.495-0.522c0,0-0.206,0.165-0.418,0.46
		c-0.156-0.146-0.343-0.288-0.568-0.423c0,0-1.118,1.211-0.351,2.527c0.683,1.172,2.197,0.859,2.513,0.461
		C313.28,56.94,314.582,55.688,313.236,53.936z"/>
	<path fill="#43AAA4" d="M317.37,51.352c0,0-0.32,0.163-0.638,0.5c-0.13-0.173-0.292-0.347-0.495-0.522c0,0-0.206,0.165-0.418,0.46
		c-0.156-0.146-0.343-0.288-0.568-0.423c0,0-1.118,1.211-0.351,2.527c0.683,1.172,2.197,0.859,2.513,0.461
		C317.414,54.356,318.716,53.104,317.37,51.352z"/>
	<path fill="#43AAA4" d="M321.504,53.936c0,0-0.32,0.163-0.638,0.5c-0.13-0.173-0.292-0.347-0.495-0.522c0,0-0.206,0.165-0.418,0.46
		c-0.156-0.146-0.343-0.288-0.568-0.423c0,0-1.118,1.211-0.351,2.527c0.683,1.172,2.197,0.859,2.513,0.461
		C321.548,56.94,322.849,55.688,321.504,53.936z"/>
	<circle fill="#43AAA4" cx="303.846" cy="47.324" r="0.158"/>
	
		<line fill="none" stroke="#F5F1E8" stroke-width="0.3103" stroke-miterlimit="10" x1="310.148" y1="25.805" x2="316.349" y2="25.805"/>
	
		<line fill="none" stroke="#F5F1E8" stroke-width="0.3103" stroke-miterlimit="10" x1="310.148" y1="26.386" x2="316.349" y2="26.386"/>
	<path fill="#43AAA4" d="M314.598,48.735v-2.341c0-0.636-0.516-1.153-1.153-1.153c-0.636,0-1.153,0.516-1.153,1.153v2.341H314.598z"
		/>
	<path fill="none" stroke="#F5F1E8" stroke-width="0.3399" stroke-miterlimit="10" d="M314.409,48.845v-2.311
		c0-0.581-0.383-1.052-0.964-1.052s-0.964,0.471-0.964,1.052v2.311H314.409z"/>
	<circle fill="#F5F1E8" cx="314.051" cy="47.348" r="0.168"/>
	<g>
		<circle fill="#20170A" cx="266.639" cy="18.768" r="0.269"/>
		<path fill="#20170A" d="M267.638,17.424c-0.123,0.392-0.459,0.717-0.53,0.874c0.157-0.071,0.481-0.407,0.874-0.53
			c0.294-0.092,0.57,0.006,0.57,0.006c-0.098-0.539,0.098-0.883,0.215-1l0.441-0.441c0.092-0.092,0.04-0.176,0.04-0.176
			s-0.083-0.052-0.175,0.04l-0.442,0.442c-0.117,0.116-0.46,0.312-1,0.214C267.632,16.854,267.73,17.131,267.638,17.424z"/>
		<path fill="#20170A" d="M266.397,17.111c0.191,0.364,0.182,0.831,0.242,0.992c0.061-0.161,0.052-0.628,0.243-0.992
			c0.143-0.273,0.408-0.399,0.408-0.399c-0.451-0.312-0.555-0.694-0.555-0.858v-0.624c0-0.13-0.095-0.153-0.095-0.153
			s-0.095,0.022-0.095,0.153v0.624c0,0.165-0.104,0.546-0.555,0.858C265.989,16.712,266.253,16.838,266.397,17.111z"/>
		<path fill="#20170A" d="M264.512,16.774c0.116,0.117,0.312,0.46,0.214,1c0,0,0.277-0.098,0.57-0.006
			c0.392,0.123,0.717,0.459,0.874,0.53c-0.071-0.157-0.408-0.481-0.53-0.874c-0.092-0.294,0.006-0.57,0.006-0.57
			c-0.54,0.098-0.883-0.098-1-0.214c-0.116-0.117-0.349-0.35-0.441-0.442c-0.092-0.092-0.176-0.04-0.176-0.04
			s-0.052,0.083,0.04,0.175C264.162,16.425,264.395,16.658,264.512,16.774z"/>
		<path fill="#20170A" d="M268.767,20.76c-0.117-0.117-0.313-0.46-0.214-0.999c0,0-0.277,0.098-0.57,0.006
			c-0.392-0.123-0.717-0.459-0.874-0.53c0.071,0.157,0.407,0.481,0.53,0.874c0.092,0.294-0.006,0.57-0.006,0.57
			c0.539-0.098,0.883,0.098,0.999,0.215l0.442,0.442c0.092,0.092,0.175,0.04,0.175,0.04s0.052-0.084-0.04-0.175L268.767,20.76z"/>
		<path fill="#20170A" d="M264.584,19.418c0,0,0.126-0.265,0.399-0.408c0.364-0.191,0.832-0.182,0.992-0.242
			c-0.161-0.061-0.628-0.052-0.992-0.243c-0.273-0.143-0.399-0.407-0.399-0.407c-0.312,0.451-0.694,0.555-0.859,0.555h-0.624
			c-0.13,0-0.152,0.095-0.152,0.095s0.022,0.095,0.152,0.095h0.624C263.89,18.863,264.272,18.967,264.584,19.418z"/>
		<path fill="#20170A" d="M270.177,18.672h-0.624c-0.165,0-0.546-0.104-0.859-0.555c0,0-0.126,0.264-0.399,0.407
			c-0.364,0.191-0.831,0.182-0.992,0.243c0.161,0.06,0.628,0.052,0.992,0.242c0.273,0.143,0.399,0.408,0.399,0.408
			c0.312-0.451,0.694-0.555,0.859-0.555h0.624c0.13,0,0.152-0.095,0.152-0.095S270.307,18.672,270.177,18.672z"/>
		<path fill="#20170A" d="M266.882,20.424c-0.191-0.365-0.182-0.832-0.243-0.993c-0.061,0.161-0.052,0.628-0.242,0.993
			c-0.143,0.272-0.408,0.398-0.408,0.398c0.451,0.312,0.555,0.694,0.555,0.859v0.624c0,0.13,0.095,0.152,0.095,0.152
			s0.095-0.022,0.095-0.152v-0.624c0-0.165,0.104-0.547,0.555-0.859C267.289,20.822,267.025,20.696,266.882,20.424z"/>
		<path fill="#20170A" d="M265.64,20.11c0.122-0.392,0.459-0.717,0.53-0.874c-0.157,0.071-0.481,0.408-0.874,0.53
			c-0.294,0.092-0.57-0.006-0.57-0.006c0.098,0.539-0.098,0.883-0.214,0.999c-0.117,0.117-0.35,0.349-0.442,0.442
			c-0.092,0.092-0.04,0.175-0.04,0.175s0.083,0.052,0.176-0.041c0.092-0.092,0.324-0.325,0.441-0.441
			c0.117-0.117,0.46-0.313,1-0.215C265.646,20.68,265.548,20.404,265.64,20.11z"/>
	</g>
	<path fill="#20170A" d="M58.495,52.594l-0.002,0.001c-0.009,0.005-0.875,0.479-1.996,0.197l-0.004-0.001
		c0,0-0.121,1.481-0.158,1.93h2.997c-0.025-0.352-0.09-1.298-0.09-1.298L58.495,52.594z"/>
	<path fill="#F5F1E8" d="M239.104,61.697c0.708,0,1.284-0.575,1.284-1.284c0-0.709-0.576-1.284-1.284-1.284
		c-0.71,0-1.284,0.575-1.284,1.284C237.82,61.122,238.394,61.697,239.104,61.697z M239.078,61.181
		c-0.002,0.199-0.061,0.301-0.19,0.329c-0.13,0.029-0.346-0.033-0.415-0.146c-0.072-0.121-0.055-0.219,0.059-0.339l0.236-0.235
		l0.1-0.101c0.057,0.049,0.13,0.08,0.21,0.086v0.394V61.181z M239.729,61.364c-0.069,0.113-0.285,0.175-0.415,0.146
		c-0.13-0.028-0.189-0.131-0.191-0.329v-0.013v-0.394c0.08-0.004,0.153-0.034,0.212-0.084l0.098,0.099l0.236,0.235
		C239.784,61.145,239.802,61.243,239.729,61.364z M240.042,61.052c-0.122,0.073-0.22,0.056-0.34-0.058l-0.334-0.335
		c0.053-0.057,0.088-0.131,0.096-0.212h0.381c0.206-0.001,0.313,0.058,0.342,0.191C240.215,60.767,240.154,60.983,240.042,61.052z
		 M240.042,59.772c0.112,0.068,0.173,0.285,0.146,0.415c-0.03,0.131-0.136,0.19-0.342,0.19h-0.381
		c-0.008-0.081-0.043-0.155-0.096-0.211l0.334-0.336C239.821,59.716,239.92,59.699,240.042,59.772z M239.123,59.642
		c0.002-0.197,0.061-0.3,0.191-0.328c0.13-0.028,0.346,0.032,0.415,0.145c0.073,0.122,0.056,0.22-0.059,0.339l-0.336,0.336
		c-0.057-0.047-0.132-0.078-0.21-0.082v-0.398V59.642z M239.42,60.414c0,0.175-0.142,0.317-0.317,0.317
		c-0.175,0-0.318-0.142-0.318-0.317c0-0.175,0.143-0.318,0.318-0.318C239.279,60.096,239.42,60.238,239.42,60.414z M238.472,59.459
		c0.069-0.113,0.285-0.174,0.415-0.145c0.13,0.029,0.189,0.131,0.19,0.328v0.013c0,0,0,0.315,0,0.398
		c-0.079,0.006-0.151,0.035-0.208,0.085l-0.338-0.339C238.417,59.678,238.4,59.581,238.472,59.459z M238.16,59.772
		c0.122-0.073,0.22-0.056,0.34,0.058c0,0,0.167,0.168,0.271,0.272c0.018,0.019,0.035,0.036,0.049,0.049l0,0l0.018,0.017
		c-0.053,0.056-0.087,0.129-0.096,0.209h-0.386c-0.206,0-0.313-0.059-0.342-0.19C237.985,60.057,238.048,59.839,238.16,59.772z
		 M238.015,60.638c0.029-0.133,0.135-0.192,0.342-0.191h0.386c0.008,0.08,0.041,0.153,0.094,0.21l-0.336,0.336
		c-0.12,0.114-0.219,0.131-0.34,0.058C238.048,60.983,237.985,60.767,238.015,60.638z"/>
	<g>
		<path fill="#43AAA4" d="M258.949,34.719c-0.809-1.463-1.288-2.051-1.567-2.264c-0.95-0.043-1.836-0.319-1.838-0.319v2.584h-0.775
			v1.033h22.737v-1.033H258.949z"/>
		<path fill="#43AAA4" d="M261.669,26.839h-6.125v5.297l1.695,0.201C261.77,30.377,261.718,27.382,261.669,26.839z"/>
	</g>
	<g>
		<path fill="none" d="M268.698,59.716c-0.043-0.232-0.123-0.448-0.234-0.643l-1.502,0.643H268.698z"/>
		<path fill="none" d="M268.318,58.854c-0.224-0.297-0.526-0.528-0.874-0.667l-0.542,1.274L268.318,58.854z"/>
		<path fill="none" d="M265.809,58.234c-0.286,0.134-0.536,0.335-0.732,0.581l1.347,0.719L265.809,58.234z"/>
		<path fill="none" d="M267.198,58.106c-0.165-0.043-0.338-0.066-0.516-0.066c-0.22,0-0.432,0.037-0.632,0.101l0.597,1.26
			L267.198,58.106z"/>
		<path fill="none" d="M264.928,59.029c-0.125,0.207-0.215,0.438-0.261,0.688h1.551L264.928,59.029z"/>
		<path fill="#F5F1E8" d="M263.281,59.975h6.66c-0.016-0.089-0.043-0.172-0.066-0.258h-0.919c0-0.008,0.002-0.015,0-0.023
			c-0.045-0.26-0.133-0.502-0.255-0.722l0.629-0.27c0.025-0.011,0.04-0.033,0.054-0.055c-0.046-0.065-0.101-0.121-0.151-0.183
			c-0.002,0.001-0.003-0.001-0.005,0l-0.666,0.285c-0.255-0.358-0.609-0.635-1.018-0.8l0.227-0.534
			c-0.081-0.03-0.164-0.053-0.248-0.077l-0.224,0.527c-0.197-0.054-0.405-0.084-0.618-0.084c-0.259,0-0.509,0.044-0.744,0.124
			l-0.265-0.56c-0.084,0.024-0.168,0.047-0.249,0.077l0.274,0.578c-0.336,0.158-0.628,0.396-0.852,0.691l-0.727-0.388
			c-0.055,0.06-0.105,0.125-0.156,0.189c0.01,0.012,0.015,0.028,0.03,0.036l0.707,0.377c-0.139,0.232-0.238,0.492-0.289,0.771
			c-0.003,0.013-0.001,0.026,0.001,0.039h-1.065C263.323,59.802,263.297,59.886,263.281,59.975z M268.698,59.716h-1.736l1.502-0.643
			C268.575,59.268,268.655,59.485,268.698,59.716z M267.444,58.187c0.348,0.139,0.65,0.37,0.874,0.667l-1.416,0.607L267.444,58.187z
			 M266.682,58.04c0.178,0,0.35,0.023,0.516,0.066l-0.551,1.295l-0.597-1.26C266.25,58.076,266.462,58.04,266.682,58.04z
			 M265.809,58.234l0.616,1.3l-1.347-0.719C265.273,58.569,265.523,58.369,265.809,58.234z M264.928,59.029l1.29,0.688h-1.551
			C264.712,59.467,264.803,59.235,264.928,59.029z"/>
	</g>
</g>
</svg>
