<?xml version="1.0" encoding="utf-8"?>
<!-- Generator: Adobe Illustrator 17.0.2, SVG Export Plug-In . SVG Version: 6.00 Build 0)  -->
<!DOCTYPE svg PUBLIC "-//W3C//DTD SVG 1.1//EN" "http://www.w3.org/Graphics/SVG/1.1/DTD/svg11.dtd">
<svg version="1.1" id="Layer_1" xmlns="http://www.w3.org/2000/svg" xmlns:xlink="http://www.w3.org/1999/xlink" x="0px" y="0px"
	 width="34.451px" height="80.878px" viewBox="0 0 34.451 80.878" enable-background="new 0 0 34.451 80.878" xml:space="preserve">
<path fill="#251C0F" stroke="#FFFEF4" stroke-width="0.5" stroke-miterlimit="10" d="M27.224,51.15c0,0-7.457-4.989-13.152-1.26
	c-0.868-0.28-1.626-0.309-2.275-0.211c0.171-0.24,0.792-1.146,0.662-1.452c-0.295-0.689-1.159-0.505-1.259,0.151
	c-0.075,0.488-0.066,0.977,0.111,1.403c-0.179,0.048-0.348,0.105-0.507,0.167c0.137-0.244,0.422-0.911-0.309-1.317
	c-0.907-0.504-1.663,0.807-0.957,1.31c0.215,0.154,0.382,0.278,0.512,0.378c-0.601,0.353-0.957,0.696-1.066,0.63
	c-1.815-1.109-2.167,0.252-2.167,0.252s-0.403,4.434-4.585,4.233c-2.023-0.098-2,2.853-1.462,4.183
	c1.189,2.933,3.998,2.374,5.143,2.002c0.217,0.282,0.565,0.668,0.852,0.668c0.454,0,1.109-0.857,0.907-1.159
	c-0.073-0.111-0.146-0.234-0.211-0.347c1.481-0.44,2.173-1.492,2.579-2.475c0.76-1.837,0,2.822,1.763,3.98
	c0,0-2.998,6.89,1.008,8.818c1.36,0.656,0.051-1.561,1.058-3.98c0,0,0.857-1.763,0.957,0.302c0,0,0.254,4.669,3.258,6.243
	c-0.31,0.459-0.758,1.338-0.588,2.424c0.252,1.613-1.634,1.982-1.209,2.822c0.403,0.796-0.101,1.561,1.561,1.36
	c1.663-0.201,2.52-1.109,2.721-1.764s0.403-2.67,0.807-2.57c0.292,0.073,4.386,1.395,7.849-0.507
	c0.004,0.017,0.005,0.035,0.011,0.053c0.201,0.605-0.124,1.565-0.809,2.078c-0.661,0.496-0.691,0.666,0.204,0.139
	c1.226-0.722,1.254-2.012,1.319-2.727c1.039-0.739,1.987-1.816,2.711-3.37C34.732,67.173,35.337,55.786,27.224,51.15z M2.821,58.812
	c-0.355,0.086-0.724-0.174-0.824-0.582c-0.101-0.409,0.106-0.811,0.461-0.898c0.355-0.086,0.724,0.173,0.825,0.582
	C3.383,58.323,3.176,58.725,2.821,58.812z"/>
<path fill="#251C0F" d="M27.054,51.369c0,0-7.331-4.904-12.929-1.239c-0.853-0.275-1.598-0.304-2.236-0.207
	c0.168-0.236,0.779-1.127,0.651-1.427c-0.29-0.677-1.139-0.496-1.238,0.148c-0.074,0.48-0.065,0.96,0.109,1.379
	c-0.176,0.047-0.342,0.103-0.498,0.164c0.135-0.24,0.415-0.896-0.304-1.295c-0.892-0.495-1.635,0.793-0.941,1.288
	c0.211,0.151,0.376,0.273,0.503,0.372c-0.591,0.347-0.941,0.684-1.048,0.619c-1.784-1.09-2.13,0.248-2.13,0.248
	s-0.396,4.359-4.507,4.161c-1.989-0.096-1.966,2.805-1.437,4.112c1.169,2.883,3.93,2.334,5.056,1.968
	c0.213,0.277,0.555,0.657,0.838,0.657c0.446,0,1.09-0.842,0.892-1.139c-0.072-0.109-0.144-0.23-0.207-0.341
	c1.456-0.433,2.136-1.467,2.535-2.433c0.747-1.806,0,2.774,1.733,3.913c0,0-2.947,6.773,0.991,8.669
	c1.337,0.645,0.05-1.535,1.04-3.913c0,0,0.842-1.733,0.941,0.297c0,0,0.25,4.59,3.203,6.137c-0.305,0.451-0.745,1.315-0.578,2.383
	c0.248,1.586-1.606,1.948-1.189,2.774c0.396,0.783-0.099,1.535,1.535,1.337c1.635-0.198,2.477-1.09,2.675-1.734
	c0.198-0.644,0.396-2.625,0.793-2.526c0.287,0.072,4.312,1.371,7.716-0.498c0.004,0.017,0.005,0.034,0.011,0.052
	c0.198,0.595-0.122,1.538-0.795,2.043c-0.65,0.488-0.679,0.655,0.201,0.137c1.205-0.71,1.233-1.978,1.297-2.681
	c1.021-0.726,1.953-1.785,2.665-3.313C34.435,67.12,35.03,55.926,27.054,51.369z M3.065,58.901c-0.349,0.085-0.712-0.171-0.81-0.572
	c-0.099-0.402,0.104-0.797,0.453-0.883c0.349-0.085,0.712,0.17,0.811,0.572C3.617,58.42,3.414,58.815,3.065,58.901z"/>
<ellipse transform="matrix(0.377 0.9262 -0.9262 0.377 53.3832 24.9399)" fill="#FFFFFF" cx="8.152" cy="52.152" rx="0.337" ry="0.213"/>
<path fill="none" stroke="#C6C4B9" stroke-width="0.4" stroke-linecap="round" stroke-miterlimit="10" d="M18.254,48.667
	c0,0-1.074-25.189-1.715-25.189"/>
<path fill="#06B09E" stroke="#FFFEF4" stroke-width="0.5" stroke-miterlimit="10" d="M17.095,24.223
	c6.999-6.072,7.646-14.267,4.417-19.456C17.308-1.992,3.588-1.05,4.739,11.598C5.536,20.368,16.9,24.377,16.9,24.377
	c-0.098,0.359-0.169,1.004,0.487,1.425C18.232,26.345,17.464,24.685,17.095,24.223z"/>
<path fill="#06B09E" d="M17.038,24.018c6.868-5.959,7.503-14.001,4.335-19.093c-4.126-6.632-17.59-5.708-16.461,6.704
	C5.694,20.235,16.846,24.17,16.846,24.17c-0.096,0.352-0.166,0.985,0.478,1.398C18.153,26.101,17.4,24.472,17.038,24.018z"/>
<path fill="none" stroke="#C6C4B9" stroke-width="0.4" stroke-linecap="round" stroke-miterlimit="10" d="M14.585,66.422
	c0,0,8.46-7.397,3.702-17.58c0,0,1.541-0.699,1.189-1.09c-0.387-0.429-1.189,0.982-1.189,0.982s-0.13-0.62-0.547-0.732
	c-0.625-0.167-0.015,0.76,0.548,0.839"/>
</svg>
