<?xml version="1.0" encoding="utf-8"?>
<!-- Generator: Adobe Illustrator 17.0.2, SVG Export Plug-In . SVG Version: 6.00 Build 0)  -->
<!DOCTYPE svg PUBLIC "-//W3C//DTD SVG 1.1 Tiny//EN" "http://www.w3.org/Graphics/SVG/1.1/DTD/svg11-tiny.dtd">
<svg version="1.1" baseProfile="tiny" id="Layer_1" xmlns="http://www.w3.org/2000/svg" xmlns:xlink="http://www.w3.org/1999/xlink"
	 x="0px" y="0px" width="34.451px" height="80.878px" viewBox="116.829 -87.323 34.451 80.878" xml:space="preserve">
<path fill="#251C0F" d="M143.867-35.894c0,0-7.331-4.904-12.929-1.239c-0.853-0.275-1.598-0.304-2.236-0.207
	c0.168-0.236,0.779-1.127,0.651-1.427c-0.29-0.677-1.139-0.496-1.238,0.148c-0.074,0.48-0.065,0.96,0.109,1.379
	c-0.176,0.047-0.342,0.103-0.498,0.164c0.135-0.24,0.415-0.896-0.304-1.295c-0.892-0.495-1.635,0.793-0.941,1.288
	c0.211,0.151,0.376,0.273,0.503,0.372c-0.591,0.347-0.941,0.684-1.048,0.619c-1.784-1.09-2.13,0.248-2.13,0.248
	s-0.396,4.359-4.507,4.161c-1.989-0.096-1.966,2.805-1.437,4.112c1.169,2.883,3.93,2.334,5.056,1.968
	c0.213,0.277,0.555,0.657,0.838,0.657c0.446,0,1.09-0.842,0.892-1.139c-0.072-0.109-0.144-0.23-0.207-0.341
	c1.456-0.433,2.136-1.467,2.535-2.433c0.747-1.806,0,2.774,1.733,3.913c0,0-2.947,6.773,0.991,8.669
	c1.337,0.645,0.05-1.535,1.04-3.913c0,0,0.842-1.733,0.941,0.297c0,0,0.25,4.59,3.203,6.137c-0.305,0.451-0.745,1.315-0.578,2.383
	c0.248,1.586-1.606,1.948-1.189,2.774c0.396,0.783-0.099,1.535,1.535,1.337c1.635-0.198,2.477-1.09,2.675-1.734
	c0.198-0.644,0.396-2.625,0.793-2.526c0.287,0.072,4.312,1.371,7.716-0.498c0.004,0.017,0.005,0.034,0.011,0.052
	c0.198,0.595-0.122,1.538-0.795,2.043c-0.65,0.488-0.679,0.655,0.201,0.137c1.205-0.71,1.233-1.978,1.297-2.681
	c1.021-0.726,1.953-1.785,2.665-3.313C151.248-20.143,151.843-31.337,143.867-35.894z M119.878-28.362
	c-0.349,0.085-0.712-0.171-0.81-0.572c-0.099-0.402,0.104-0.797,0.453-0.883c0.349-0.085,0.712,0.17,0.811,0.572
	C120.43-28.843,120.227-28.448,119.878-28.362z"/>
<ellipse transform="matrix(-0.9262 0.377 -0.377 -0.9262 227.4705 -114.7408)" fill="#FFFFFF" cx="124.964" cy="-35.11" rx="0.213" ry="0.337"/>
<path fill="none" stroke="#C6C4B9" stroke-width="0.4" stroke-linecap="round" stroke-miterlimit="10" d="M131.398-20.841
	c0,0,8.46-7.397,3.702-17.58c0,0,1.541-0.699,1.189-1.09c-0.387-0.429-1.189,0.982-1.189,0.982s-0.13-0.62-0.547-0.732
	c-0.625-0.167-0.015,0.76,0.548,0.839"/>
<path fill="none" stroke="#C6C4B9" stroke-width="0.4" stroke-linecap="round" stroke-miterlimit="10" d="M135.067-38.596
	c0,0-1.074-25.189-1.715-25.189"/>
<path fill="#06B09E" d="M133.851-63.245c6.868-5.959,7.503-14.001,4.335-19.093c-4.126-6.632-17.59-5.708-16.461,6.704
	c0.782,8.606,11.934,12.541,11.934,12.541c-0.096,0.352-0.166,0.985,0.478,1.398C134.966-61.162,134.213-62.791,133.851-63.245z"/>
</svg>
