<?xml version="1.0" encoding="utf-8"?>
<!-- Generator: Adobe Illustrator 17.0.2, SVG Export Plug-In . SVG Version: 6.00 Build 0)  -->
<!DOCTYPE svg PUBLIC "-//W3C//DTD SVG 1.1 Tiny//EN" "http://www.w3.org/Graphics/SVG/1.1/DTD/svg11-tiny.dtd">
<svg version="1.1" baseProfile="tiny" id="Layer_1" xmlns="http://www.w3.org/2000/svg" xmlns:xlink="http://www.w3.org/1999/xlink"
	 x="0px" y="0px" width="195.59px" height="31.18px" viewBox="0 0 195.59 31.18" xml:space="preserve">
<g>
	<path fill="#F87217" d="M12.631,6.663l-0.853,4.064H8.607l-1.078,5.31C7.443,16.482,7.4,16.836,7.4,17.092
		c0,0.907,0.402,1.359,1.207,1.359c0.869,0,1.925-0.461,3.171-1.385l-0.307,4.947c-1.47,0.869-3.016,1.301-4.635,1.301
		c-0.708,0-1.403-0.125-2.078-0.377c-0.676-0.251-1.293-0.714-1.852-1.389c-0.665-0.779-0.999-1.807-0.999-3.079
		c0-0.565,0.06-1.157,0.18-1.776l1.107-5.966H0.169l9.822-7.329L9.363,6.663H12.631z"/>
	<path fill="#F87217" d="M28.373,8.052l-2.526,5.183c-0.289-0.505-0.61-0.936-0.965-1.289c-0.353-0.355-0.806-0.531-1.352-0.531
		c-1.051,0-2.016,0.756-2.895,2.265l-1.384,9.35h-5.313l2.447-16.366h5.31l-0.337,2.354c1.47-1.758,2.78-2.64,3.927-2.64
		c0.599,0,1.134,0.149,1.602,0.444C27.349,7.116,27.847,7.526,28.373,8.052z"/>
	<path fill="#F87217" d="M45.342,6.894l-2.479,16.135h-5.328l0.258-1.489c-0.622,0.55-1.223,0.981-1.809,1.3
		c-0.583,0.316-1.333,0.475-2.245,0.475c-1.157,0-2.184-0.322-3.074-0.972c-0.889-0.647-1.576-1.513-2.059-2.593
		c-0.483-1.082-0.722-2.262-0.722-3.536c0-1.061,0.173-2.148,0.521-3.256c0.35-1.109,0.969-2.168,1.866-3.181
		c0.894-1.011,2.159-1.831,3.79-2.457c1.63-0.629,3.642-0.942,6.034-0.942c1.009,0,1.835,0.037,2.479,0.112
		C43.219,6.566,44.14,6.7,45.342,6.894z M39.572,10.327h-0.999c-0.966,0-1.847,0.273-2.646,0.816
		c-0.798,0.544-1.424,1.282-1.874,2.211c-0.452,0.93-0.678,1.932-0.678,3.01c0,0.734,0.188,1.363,0.561,1.881
		c0.378,0.518,0.914,0.776,1.61,0.776c0.344,0,0.732-0.089,1.167-0.265c0.435-0.176,0.991-0.482,1.667-0.92L39.572,10.327z"/>
	<path fill="#F87217" d="M55.409,6.663l-2.345,16.366h-5.449l2.342-16.366H55.409z M55.715,2.897c0,0.672-0.243,1.249-0.73,1.731
		c-0.482,0.481-1.071,0.72-1.758,0.72c-0.68,0-1.267-0.242-1.756-0.728c-0.489-0.486-0.734-1.06-0.734-1.723
		c0-0.674,0.246-1.254,0.734-1.74c0.489-0.486,1.076-0.729,1.756-0.729c0.429,0,0.838,0.112,1.228,0.337
		c0.388,0.224,0.695,0.528,0.921,0.914C55.603,2.062,55.715,2.469,55.715,2.897z"/>
	<path fill="#F87217" d="M75.006,11.344c0,0.322-0.053,0.926-0.162,1.816l-1.463,9.869h-5.322l1.479-10.2
		c0.022-0.127,0.033-0.316,0.033-0.562c0-1.026-0.452-1.54-1.352-1.54c-0.56,0-1.102,0.183-1.634,0.547
		c-0.531,0.364-1.262,0.984-2.196,1.862l-1.448,9.893h-5.376l2.448-16.366h5.343L65.08,8.586c0.987-0.71,1.856-1.254,2.599-1.634
		c0.748-0.383,1.672-0.574,2.777-0.574c1.669,0,2.849,0.52,3.528,1.552C74.665,8.964,75.006,10.102,75.006,11.344z"/>
	<path fill="#F87217" d="M85.566,6.663l-2.345,16.366h-5.449L80.11,6.663H85.566z M85.873,2.897c0,0.672-0.242,1.249-0.728,1.731
		c-0.484,0.481-1.072,0.72-1.763,0.72c-0.676,0-1.264-0.242-1.752-0.728c-0.493-0.486-0.734-1.06-0.734-1.723
		c0-0.674,0.241-1.254,0.734-1.74c0.488-0.486,1.076-0.729,1.752-0.729c0.432,0,0.842,0.112,1.231,0.337
		c0.385,0.224,0.691,0.528,0.919,0.914C85.757,2.062,85.873,2.469,85.873,2.897z"/>
	<path fill="#F87217" d="M105.161,11.344c0,0.322-0.054,0.926-0.16,1.816l-1.465,9.869h-5.322l1.481-10.2
		c0.022-0.127,0.028-0.316,0.028-0.562c0-1.026-0.448-1.54-1.351-1.54c-0.556,0-1.099,0.183-1.63,0.547
		c-0.532,0.364-1.263,0.984-2.199,1.862l-1.446,9.893h-5.376l2.445-16.366h5.343l-0.275,1.923c0.988-0.71,1.852-1.254,2.6-1.634
		c0.744-0.383,1.671-0.574,2.776-0.574c1.672,0,2.85,0.52,3.528,1.552C104.822,8.964,105.161,10.102,105.161,11.344z"/>
	<path fill="#F87217" d="M126.765,6.663l-0.574,4.04h-4.365c0.353,0.481,0.497,1.246,0.497,1.946c0,1.11-0.27,2.094-0.804,2.956
		c-0.539,0.863-1.344,1.533-2.418,2.015c-1.079,0.476-2.389,0.716-3.931,0.716h-0.948c-0.526,0-0.941,0.086-1.247,0.259
		c-0.306,0.17-0.456,0.419-0.456,0.737c0,0.271,0.075,0.471,0.229,0.605c0.151,0.134,0.508,0.267,1.062,0.403
		c0.552,0.133,1.493,0.321,2.824,0.568c3.835,0.706,5.754,2.3,5.754,4.776c0,0.806-0.199,1.577-0.599,2.325
		c-0.396,0.743-1.212,1.388-2.445,1.931c-1.237,0.541-2.993,0.811-5.271,0.811c-1.256,0-2.378-0.057-3.365-0.166
		c-0.988-0.115-1.846-0.319-2.579-0.61c-0.728-0.298-1.297-0.718-1.697-1.262c-0.402-0.546-0.604-1.235-0.604-2.069
		c0-1.6,1.22-2.801,3.661-3.615c-0.604-0.343-1.091-0.714-1.464-1.112c-0.371-0.399-0.558-0.95-0.558-1.661
		c0-1.546,1.18-2.49,3.545-2.837c-0.984-0.403-1.746-1.094-2.291-2.063c-0.546-0.969-0.817-1.931-0.817-2.897
		c0-0.619,0.115-1.267,0.352-1.936c0.237-0.667,0.635-1.299,1.195-1.892c0.556-0.595,1.29-1.068,2.194-1.427
		c0.91-0.362,2.014-0.542,3.311-0.542H126.765z M117.351,26.439c0-0.504-0.244-0.85-0.727-1.035c-0.481-0.188-1.486-0.38-2.999-0.57
		l-1.009-0.146c-0.778,0.31-1.306,0.57-1.582,0.78c-0.273,0.207-0.412,0.479-0.412,0.811c0,0.483,0.287,0.835,0.856,1.054
		c0.571,0.223,1.477,0.332,2.716,0.332c1.218,0,2.048-0.109,2.491-0.322C117.129,27.126,117.351,26.828,117.351,26.439z
		 M117.287,12.021c0-0.71-0.171-1.257-0.512-1.637c-0.34-0.383-0.811-0.574-1.417-0.574c-0.901,0-1.53,0.371-1.886,1.106
		c-0.357,0.738-0.536,1.427-0.536,2.074c0,0.71,0.192,1.263,0.574,1.662c0.384,0.398,0.847,0.594,1.385,0.594
		c0.86,0,1.475-0.342,1.844-1.032C117.105,13.524,117.287,12.796,117.287,12.021z"/>
	<path d="M137.198,6.663l-0.851,4.064h-3.17l-1.078,5.31c-0.085,0.445-0.128,0.799-0.128,1.055c0,0.907,0.402,1.359,1.206,1.359
		c0.868,0,1.926-0.461,3.17-1.385l-0.306,4.947c-1.47,0.869-3.018,1.301-4.634,1.301c-0.71,0-1.405-0.125-2.078-0.377
		c-0.68-0.251-1.295-0.714-1.855-1.389c-0.664-0.779-1-1.807-1-3.079c0-0.565,0.062-1.157,0.179-1.776l1.11-5.966h-3.026
		l0.722-4.064h3.063l0.627-3.264h5.413l-0.628,3.264H137.198z"/>
	<path d="M152.946,8.052l-2.527,5.183c-0.29-0.505-0.611-0.936-0.967-1.289c-0.355-0.355-0.807-0.531-1.353-0.531
		c-1.05,0-2.016,0.756-2.897,2.265l-1.383,9.35h-5.311l2.449-16.366h5.31l-0.338,2.354c1.47-1.758,2.779-2.64,3.926-2.64
		c0.6,0,1.133,0.149,1.601,0.444C151.923,7.116,152.419,7.526,152.946,8.052z"/>
	<path d="M160.912,6.663l-2.345,16.366h-5.45l2.341-16.366H160.912z M161.217,2.897c0,0.672-0.239,1.249-0.727,1.731
		c-0.487,0.481-1.071,0.72-1.763,0.72c-0.679,0-1.262-0.242-1.75-0.728c-0.494-0.486-0.735-1.06-0.735-1.723
		c0-0.674,0.241-1.254,0.735-1.74c0.488-0.486,1.071-0.729,1.75-0.729c0.432,0,0.842,0.112,1.229,0.337
		c0.389,0.224,0.694,0.528,0.925,0.914C161.103,2.062,161.217,2.469,161.217,2.897z"/>
	<path d="M181.423,13.969c0,1.694-0.363,3.254-1.093,4.68c-0.73,1.428-1.783,2.56-3.163,3.402c-1.377,0.845-2.959,1.264-4.736,1.264
		c-0.538,0-1.033-0.049-1.489-0.146c-0.458-0.097-0.948-0.23-1.474-0.403l-1.19,7.702h-5.344l2.574-17.02l-2.233,2.657
		c-0.204,0.222-0.356,0.376-0.462,0.459c-0.102,0.084-0.221,0.127-0.361,0.127c-0.335,0-0.497-0.21-0.497-0.625
		c0-0.502,0.191-1.136,0.578-1.907c0.386-0.769,0.819-1.459,1.302-2.069c0.482-0.61,1.23-1.373,2.238-2.292l0.918-6.024h5.311
		l-0.436,2.892c0.365-0.112,0.74-0.188,1.126-0.227c0.386-0.037,0.773-0.059,1.157-0.059c1.203,0,2.265,0.198,3.182,0.587
		c0.916,0.392,1.68,0.938,2.281,1.646c0.608,0.704,1.064,1.509,1.363,2.415C181.275,11.927,181.423,12.908,181.423,13.969z
		 M175.816,13.905c0-1.069-0.255-1.954-0.764-2.649c-0.51-0.696-1.354-1.045-2.534-1.045c-0.43,0-0.827,0.049-1.19,0.147
		l-1.306,8.503c0.395,0.11,0.821,0.161,1.271,0.161c1.096,0,1.981-0.258,2.658-0.776c0.673-0.521,1.154-1.171,1.439-1.951
		C175.674,15.514,175.816,14.716,175.816,13.905z"/>
	<path d="M195.421,7.899l-0.4,3.873c-0.795-0.397-1.673-0.757-2.633-1.079c-0.961-0.322-1.716-0.483-2.275-0.483
		c-0.728,0-1.091,0.252-1.091,0.751c0,0.289,0.105,0.55,0.329,0.784c0.219,0.234,0.588,0.532,1.104,0.887
		c0.514,0.358,0.979,0.708,1.389,1.047c1.075,0.899,1.803,1.708,2.174,2.428c0.367,0.717,0.554,1.39,0.554,2.018
		c0,0.807-0.238,1.611-0.709,2.418c-0.47,0.81-1.188,1.475-2.147,1.993c-0.956,0.517-2.128,0.778-3.51,0.778
		c-0.549,0-1.329-0.1-2.34-0.298c-1.014-0.2-2.069-0.586-3.16-1.157l0.692-3.764c1.191,0.482,2.108,0.836,2.753,1.055
		c0.641,0.222,1.327,0.331,2.06,0.331c0.436,0,0.78-0.101,1.021-0.304c0.241-0.201,0.36-0.432,0.36-0.686
		c0-0.323-0.17-0.633-0.508-0.937c-0.336-0.304-1.001-0.817-1.992-1.543c-0.9-0.684-1.654-1.403-2.256-2.16
		c-0.605-0.753-0.909-1.603-0.909-2.544c0-1.294,0.529-2.439,1.587-3.436c1.054-0.996,2.589-1.494,4.605-1.494
		c1.072,0,2.001,0.134,2.786,0.398C193.694,7.041,194.534,7.413,195.421,7.899z"/>
</g>
</svg>
