<?xml version="1.0" encoding="utf-8"?>
<!-- Generator: Adobe Illustrator 17.0.0, SVG Export Plug-In . SVG Version: 6.00 Build 0)  -->
<!DOCTYPE svg PUBLIC "-//W3C//DTD SVG 1.1//EN" "http://www.w3.org/Graphics/SVG/1.1/DTD/svg11.dtd">
<svg version="1.1" id="Layer_1" xmlns="http://www.w3.org/2000/svg" xmlns:xlink="http://www.w3.org/1999/xlink" x="0px" y="0px"
	 width="76px" height="179px" viewBox="0 0 76 179" enable-background="new 0 0 76 179" xml:space="preserve">
<path fill="#2B2111" d="M60.129,113.856c0,0-16.252-10.872-28.662-2.746c-1.892-0.61-3.544-0.675-4.957-0.459
	c0.372-0.523,1.728-2.499,1.443-3.164c-0.643-1.501-2.526-1.099-2.745,0.329c-0.164,1.064-0.144,2.129,0.242,3.058
	c-0.39,0.104-0.758,0.228-1.104,0.363c0.3-0.531,0.919-1.986-0.675-2.872c-1.977-1.098-3.624,1.758-2.087,2.856
	c0.468,0.334,0.833,0.606,1.115,0.824c-1.31,0.77-2.087,1.517-2.323,1.372c-3.954-2.416-4.722,0.549-4.722,0.549
	s-0.878,9.664-9.993,9.225c-4.41-0.212-4.359,6.218-3.185,9.115c2.591,6.391,8.712,5.174,11.209,4.364
	c0.472,0.614,1.231,1.456,1.859,1.456c0.988,0,2.416-1.867,1.977-2.525c-0.16-0.241-0.32-0.51-0.46-0.756
	c3.228-0.959,4.736-3.253,5.621-5.394c1.655-4.003,0,6.15,3.843,8.675c0,0-6.534,15.015,2.197,19.218
	c2.965,1.429,0.11-3.403,2.306-8.676c0,0,1.867-3.843,2.087,0.659c0,0,0.554,10.175,7.101,13.605c-0.676,1-1.651,2.915-1.281,5.283
	c0.549,3.515-3.561,4.319-2.636,6.15c0.877,1.736-0.22,3.404,3.404,2.965c3.624-0.439,5.491-2.416,5.93-3.844
	c0.439-1.428,0.879-5.82,1.758-5.601c0.636,0.159,9.56,3.04,17.105-1.104c0.009,0.038,0.012,0.075,0.025,0.115
	c0.439,1.318-0.27,3.409-1.763,4.529c-1.44,1.081-1.505,1.452,0.445,0.304c2.671-1.573,2.733-4.386,2.876-5.943
	c2.264-1.61,4.33-3.958,5.909-7.345C76.492,148.777,77.81,123.959,60.129,113.856z M6.946,130.554
	c-0.774,0.189-1.578-0.379-1.796-1.269c-0.219-0.891,0.23-1.767,1.004-1.957c0.773-0.189,1.578,0.378,1.797,1.269
	C8.169,129.488,7.719,130.364,6.946,130.554z"/>
<ellipse transform="matrix(0.9262 -0.377 0.377 0.9262 -42.237 15.4014)" fill="#FFFFFF" cx="18.224" cy="115.595" rx="0.471" ry="0.748"/>
<path fill="none" stroke="#C6C4B9" stroke-width="0.4" stroke-linecap="round" stroke-miterlimit="10" d="M32.484,147.23
	c0,0,18.756-16.4,8.207-38.974c0,0,3.417-1.549,2.636-2.416c-0.857-0.952-2.637,2.177-2.637,2.177s-0.288-1.374-1.212-1.622
	c-1.386-0.371-0.034,1.686,1.214,1.86"/>
<path fill="none" stroke="#C6C4B9" stroke-width="0.4" stroke-linecap="round" stroke-miterlimit="10" d="M40.618,107.867
	c0,0-2.382-55.843-3.803-55.843"/>
<path fill="#06B09E" d="M37.923,53.22c15.225-13.211,16.634-31.041,9.611-42.329C38.386-3.812,8.538-1.764,11.04,25.754
	c1.734,19.079,26.458,27.802,26.458,27.802c-0.212,0.781-0.368,2.183,1.059,3.1C40.395,57.838,38.725,54.227,37.923,53.22z"/>
</svg>
